<svg width="501" height="414" viewBox="0 0 501 414" fill="none" xmlns="http://www.w3.org/2000/svg">
<path d="M331.888 76.0403C434.118 148.076 455.026 180.919 462.439 194.508C467.363 203.534 480.709 229.447 470.355 272.104C460.002 314.761 421.561 340.433 403.635 347.936C379.007 354.887 330.757 358.414 304.622 347.936C256.797 328.764 177.589 361.007 113.758 356.858C49.9274 352.708 23.2894 312.977 14.6195 272.104C5.94955 231.232 27.5615 221.792 27.5615 190.981C27.5615 124.901 58.8905 78.5991 82.8479 65.3553C123.266 38.9022 229.658 4.00492 331.888 76.0403Z" fill="#F7F7F7"/>
<path fill-rule="evenodd" clip-rule="evenodd" d="M142.036 25.4516C147.703 26.768 153.061 29.158 156.555 31.9262C159.245 34.0583 159.778 34.818 159.778 36.5171C159.778 38.4388 160.035 38.6777 164.348 40.7712C174.193 45.549 181.827 52.2989 186.89 60.7014C191.542 68.4203 193.054 73.5813 193.116 81.9609C193.244 99.1894 183.28 114.239 165.774 123.255C155.564 128.513 145.2 130.669 132.403 130.195C122.595 129.832 116.513 128.516 108.35 124.992C96.8301 120.018 88.9435 113.358 83.2294 103.78C78.8294 96.4027 77.7637 92.8849 77.3609 84.4046C76.6832 70.1205 81.6566 59.1103 93.3442 49.0249C97.6927 45.2726 105.284 40.6666 109.493 39.2254C111.124 38.6671 111.637 38.0841 111.959 36.4181C112.472 33.7657 114.232 32.4381 117.75 32.0481C119.748 31.8266 120.511 31.4797 120.511 30.7944C120.511 29.5675 122.806 27.8516 126.495 26.321C130.332 24.7287 137.258 24.3416 142.036 25.4516ZM323.102 32.4347C336.576 34.4449 347.622 42.0216 352.199 52.3946C354.218 56.9681 354.666 66.3145 353.084 70.8142C349.326 81.4943 339.129 89.8845 326.637 92.5732C321.54 93.6703 312.834 93.6703 307.737 92.5732C295.287 89.8934 285.046 81.4909 281.319 70.8976C279.99 67.1173 279.839 59.5965 281.015 55.6663C284.222 44.9442 293.937 36.4662 306.564 33.3707C311.109 32.2563 318.936 31.8137 323.102 32.4347ZM326.7 38.572C331.952 40.1172 334.377 41.2977 337.915 44.0323C355.994 58.0065 348.538 82.3872 324.61 87.537C310.482 90.5782 295.747 84.7514 289.331 73.5863C285.149 66.3111 285.517 57.0509 290.253 50.3732C292.694 46.9314 297.577 42.7181 301.108 41.0084C308.34 37.5062 319.475 36.446 326.7 38.572ZM126.188 41.7369C129.574 44.8816 131.515 45.4237 131.88 43.3268C132.069 42.2409 132.296 42.2773 136.747 44.1028C139.314 45.1563 143.643 46.4386 146.366 46.9533L151.315 47.8887L151.181 56.6683C151.026 66.7072 150.732 67.5369 144.972 74.2409C142.174 77.4964 141.022 78.3809 138.966 78.8531C133.641 80.0749 132.976 79.8355 126.064 74.2062C118.695 68.206 118.947 68.7934 118.054 55.4833L117.591 48.5869L119.364 47.2279C121.295 45.7482 122.833 41.9808 122.354 39.9069C122.188 39.1896 122.238 38.6168 122.466 38.6335C122.694 38.6509 124.369 40.0473 126.188 41.7369ZM163.372 40.9547C172.615 45.0986 181.453 52.8639 186.482 61.2609C194.675 74.9396 194.631 90.2056 186.362 103.756C183.582 108.309 183.376 108.17 182.239 100.982C181.85 98.5209 180.813 94.6186 179.935 92.3109L178.338 88.1149L173.967 86.6889C171.562 85.9045 166.244 84.4202 162.148 83.3903C157.936 82.3318 153.965 80.9667 153.008 80.2484C152.077 79.5502 150.56 78.8945 149.636 78.7915C148.204 78.6315 147.876 78.2046 147.409 75.8907C146.907 73.4067 147.043 72.9429 149.009 70.4103C150.567 68.4035 151.281 66.6887 151.605 64.1723C151.907 61.831 152.631 59.973 153.83 58.4636C156.393 55.2377 157.438 51.966 156.412 50.3811C155.867 49.5385 155.174 49.2191 154.304 49.407C153.524 49.5754 153.008 49.4009 153.008 48.9695C153.008 48.5013 154.34 48.1611 156.844 47.9894C159.789 47.7874 160.972 47.4282 161.938 46.443C163.131 45.2251 163.136 45.0858 162.038 43.6994C161.402 42.8966 160.173 41.7783 159.308 41.2154C158.442 40.6521 157.908 39.96 158.119 39.6769C158.681 38.9261 159.044 39.0145 163.372 40.9547ZM113.306 42.2202C113.947 43.902 114.765 45.4276 115.121 45.61C115.479 45.7924 115.771 46.8229 115.771 47.8999C115.771 49.1178 115.504 49.7215 115.065 49.4971C113.857 48.88 112.386 50.404 112.386 52.2737C112.386 53.3596 113.429 55.4867 115.048 57.7049C117.092 60.5067 117.818 62.184 118.178 64.9427C118.5 67.4054 119.153 69.0933 120.256 70.3146C122.301 72.5793 122.586 77.201 120.68 77.2122C120.029 77.2161 118.846 78.0346 118.053 79.0304C116.99 80.3647 114.067 81.9418 106.952 85.0189C91.4641 91.7178 92.2406 91.1584 88.4316 98.3653C86.6138 101.805 84.8623 104.619 84.5387 104.619C84.2158 104.619 83.9497 104.556 83.9491 104.479C83.9477 104.402 83.0452 102.512 81.9437 100.278C76.5403 89.3217 76.4422 75.8437 81.6864 65.012C85.385 57.3726 91.638 50.2149 98.4841 45.784C102.818 42.9794 110.245 39.1622 111.37 39.1622C111.793 39.1622 112.664 40.5385 113.306 42.2202ZM316.462 41.1601C317.047 41.644 317.539 42.4619 317.555 42.9783C317.623 45.1171 319.554 48.1332 324.14 53.2589L328.993 58.684L333.076 59.0655L337.159 59.4471V66.917C337.159 74.2107 337.123 74.3931 335.636 74.6571C332.709 75.1763 326.575 75.5304 314.639 75.87C301.669 76.2387 300.206 75.9897 300.778 73.513C300.984 72.6218 300.623 72.1037 299.498 71.6802C297.6 70.9652 296.722 68.5797 297.918 67.3886C298.607 66.7027 298.605 66.2781 297.907 65.2011C297.006 63.8092 297.437 60.9811 298.55 60.9811C298.898 60.9811 298.667 60.2399 298.039 59.3335C296.943 57.757 296.955 57.6188 298.31 56.1166C299.669 54.6106 299.989 54.5406 306.256 54.3873C313.509 54.2094 313.44 54.2604 311.771 50.3514C311.212 49.0434 310.755 46.7642 310.755 45.2866C310.755 43.051 311.054 42.406 312.539 41.4409C314.679 40.0495 315.082 40.0204 316.462 41.1601ZM316.146 42.0681C316.506 42.7775 317.13 44.4312 317.531 45.7431C317.932 47.0551 319.105 48.9433 320.138 49.9391C321.172 50.9349 323.322 53.3076 324.917 55.2114C327.962 58.8451 329.994 59.8622 334.213 59.8622H336.482V66.8555C336.482 70.7017 336.253 73.8582 335.974 73.87C335.125 73.9052 330.304 74.4216 325.52 74.9894C323.028 75.2848 316.739 75.5271 311.544 75.5271C303.579 75.5271 302.034 75.3895 301.69 74.6476C301.466 74.1637 301.579 73.3083 301.942 72.7471C302.484 71.9113 302.303 71.664 300.944 71.3826C298.737 70.9244 297.609 69.1755 298.569 67.6946C298.967 67.0792 299.644 66.5757 300.074 66.5757C300.504 66.5757 300.188 66.0621 299.374 65.435C297.544 64.0268 297.468 62.3283 299.193 61.4382C300.477 60.7758 300.477 60.7478 299.193 59.3995C297.563 57.6882 297.569 57.3318 299.246 55.946C300.409 54.9849 301.502 54.8271 306.992 54.8271C310.507 54.8271 313.549 54.605 313.752 54.3331C313.956 54.0617 313.517 52.3856 312.777 50.6093C311.095 46.5695 311.036 43.5333 312.617 42.411C314.883 40.8026 315.472 40.7455 316.146 42.0681ZM146.407 49.3231C147.431 49.6325 148.269 50.0969 148.269 50.3553C148.269 50.6138 147.41 50.4711 146.361 50.0387C144.948 49.4563 143.862 49.3919 142.174 49.792C139.219 50.4924 138.747 50.1086 141.565 49.2974C144.053 48.5807 143.944 48.5802 146.407 49.3231ZM131.577 49.6521C131.749 49.8826 130.543 49.9827 128.896 49.8748C126.927 49.745 125.325 49.9894 124.221 50.5869C123.297 51.0871 122.542 51.279 122.542 51.0138C122.542 49.7187 130.707 48.4884 131.577 49.6521ZM155.597 50.4767C156.78 51.4541 156.574 52.54 154.561 55.946C152.816 58.8977 152.732 58.9559 152.479 57.3777C151.822 53.2701 153.767 48.9645 155.597 50.4767ZM115.677 50.7643C116.047 51.3366 116.547 53.429 116.788 55.414L117.225 59.023L115.835 57.6244C113.207 54.9793 112.249 50.4728 114.202 49.9419C114.643 49.8222 115.306 50.192 115.677 50.7643ZM420.014 52.0488C422.828 52.7453 425.173 54.7751 425.173 56.5144C425.173 57.8498 425.689 58.1721 430.081 59.5769C453.163 66.9584 468.197 86.1137 466.947 106.548C466.471 114.338 465.168 118.552 461.06 125.599C453.699 138.224 439.951 147.485 423.142 151.142C411.71 153.629 396.59 152.589 385.557 148.557C357.095 138.155 343.525 110.795 354.887 86.7163C358.071 79.9714 361.536 76.03 371.654 67.6465C377.072 63.158 382.936 58.7992 384.686 57.9595C394.034 53.4738 412.969 50.3055 420.014 52.0488ZM143.717 52.3716C144.468 52.9921 144.298 55.8336 143.484 56.2487C142.624 56.6884 142.473 56.576 141.918 55.0777C141.463 53.8519 142.898 51.6947 143.717 52.3716ZM129.523 53.5101C130.27 54.1266 130.059 56.9625 129.236 57.3833C128.213 57.9058 127.229 56.5267 127.444 54.8702C127.622 53.4961 128.673 52.808 129.523 53.5101ZM427.712 59.4409C430.837 60.2695 430.435 60.9811 426.842 60.9811C423.981 60.9811 423.821 60.9045 424.496 59.8622C424.894 59.2468 425.286 58.769 425.366 58.8004C425.446 58.8317 426.502 59.1198 427.712 59.4409ZM441.073 65.0081C451.915 70.9423 460.789 81.1295 464.454 91.8471C466.396 97.5273 466.899 106.433 465.616 112.451C464.459 117.878 461.332 124.894 458.294 128.878L456.22 131.598L450.338 126.841L444.456 122.085L434.306 119.418C428.724 117.951 424.108 116.728 424.048 116.699C423.989 116.671 423.74 115.766 423.496 114.688L423.054 112.728L431.053 112.729C437.953 112.731 439.423 112.566 441.76 111.527C447.209 109.104 449.546 105.646 449.546 100.006C449.546 95.2917 448.601 94.2941 442.743 92.8239C440.153 92.1738 437.876 91.4303 437.682 91.1718C437.489 90.9128 438.994 89.1605 441.027 87.278C444.869 83.7198 447.515 79.9144 447.515 77.9462C447.515 76.6404 444.754 73.0683 442.56 71.5353C441.748 70.968 439.677 69.7411 437.958 68.8097L434.834 67.1156L435.927 65.1855C436.528 64.1242 437.197 63.2469 437.413 63.2374C437.628 63.2274 439.275 64.024 441.073 65.0081ZM139.806 64.1001C139.061 64.5656 137.83 65.0747 137.071 65.2325C135.639 65.5295 131.57 64.5231 132.177 64.0218C132.367 63.8646 133.296 64.0274 134.24 64.3832C135.621 64.9035 136.39 64.8526 138.155 64.1247C140.887 62.9985 141.586 62.9885 139.806 64.1001ZM422.827 69.5146L429.091 74.6912L429.597 78.5935C429.875 80.7396 429.819 86.3812 429.472 91.131L428.842 99.7662L424.523 103.049C422.147 104.854 418.392 107.331 416.179 108.553C408.441 112.822 402.61 111.301 393.952 102.752L390.644 99.4859L390.718 89.6048C390.758 84.1696 390.987 78.2147 391.226 76.3719L391.66 73.0207L395.23 72.5983C399.394 72.1054 404.196 70.224 410.061 66.7889C412.362 65.4406 414.766 64.3379 415.403 64.3379C416.041 64.3379 419.381 66.6675 422.827 69.5146ZM404.211 66.2708C403.125 67.3511 397.749 69.9358 396.617 69.9207C396.125 69.914 397.614 68.907 399.928 67.6829C404.383 65.3248 405.545 64.9416 404.211 66.2708ZM131.324 67.4423C134.036 69.0245 136.079 69.1476 140.228 67.9794C142.764 67.2655 143.007 67.2622 141.915 67.9565C138.72 69.9873 132.275 69.5314 129.594 67.0843C128.068 65.6901 128.459 65.7707 131.324 67.4423ZM373.889 69.0732C373.617 71.0665 373.9 72.0478 375.327 74.0602C376.304 75.4381 377.104 76.8329 377.104 77.1596C377.104 77.4863 375.168 78.4788 372.803 79.365C370.438 80.2517 368 81.5687 367.386 82.2926C364.897 85.2298 366.879 91.8627 371.686 96.6819L373.731 98.7323L370.353 101.299C367.15 103.732 367.008 103.959 367.61 105.694C368.908 109.432 375.541 114.636 380.511 115.813C383.237 116.459 386.979 115.752 389.498 114.115C391.233 112.987 391.241 112.987 393.441 114.093C396.211 115.484 396.369 115.439 382.542 117.205C365.866 119.333 365.96 119.301 361.487 124.448C360.269 125.85 359.06 126.997 358.802 126.997C358.038 126.997 354.964 120.91 353.293 116.088C351.999 112.352 351.753 110.364 351.806 104.06C351.861 97.6017 352.13 95.7929 353.663 91.5796C355.589 86.2838 357.794 82.3318 361.056 78.3244C364.141 74.5324 368.688 70.2173 371.615 68.3017L374.227 66.592L373.889 69.0732ZM407.279 74.5889C407.852 75.8214 407.08 76.6426 405.33 76.6656C404.514 76.6768 403.085 77.0455 402.154 77.4852C399.765 78.6136 397.257 78.57 397.534 77.4046C398.107 75.0012 406.363 72.6151 407.279 74.5889ZM146.509 75.5595C146.709 76.3109 147.196 80.5684 147.592 85.02C148.266 92.5883 148.23 93.2066 147.043 94.5308C144.798 97.0372 141.573 98.4649 138.157 98.4649C136.238 98.4649 133.848 97.9748 132.018 97.2061C129.179 96.0134 128.961 95.7493 127.889 92.1799C125.525 84.305 125.33 85.0379 130.495 82.4275C133.01 81.1569 136.36 79.9434 137.942 79.7314C140.242 79.4226 141.351 78.8301 143.482 76.7696C146.059 74.2778 146.158 74.2381 146.509 75.5595ZM421.111 76.2085C422.786 76.9106 424.263 77.9563 424.392 78.5319C424.592 79.4276 424.3 79.5367 422.361 79.29C418.203 78.7613 414.679 77.3795 414.679 76.2784C414.679 74.7455 417.545 74.7147 421.111 76.2085ZM122.03 78.744C122.609 79.2827 123.705 81.402 124.466 83.4541C126.132 87.9493 130.823 105.235 130.459 105.536C130.317 105.654 128.896 105.37 127.301 104.905C125.707 104.44 123.084 104.06 121.472 104.06C118.628 104.06 118.526 103.997 118.028 101.962C117.746 100.808 117.53 95.7096 117.547 90.6325C117.574 83.0915 117.789 81.0685 118.724 79.5832C120.031 77.5059 120.556 77.3727 122.03 78.744ZM152.261 80.4223C153.263 81.1066 154.681 84.1814 156.97 90.6325C161.691 103.936 161.507 102.975 159.275 102.605C157.819 102.365 156.681 102.749 154.189 104.322C152.422 105.437 150.965 106.274 150.951 106.183C150.937 106.092 150.234 100.039 149.389 92.7305L147.854 79.4433H149.34C150.158 79.4433 151.472 79.8836 152.261 80.4223ZM116.813 90.7723C116.822 95.7728 117.061 101.027 117.344 102.449L117.859 105.036L120.886 104.754C124.374 104.429 129.646 105.842 130.633 107.366C131.31 108.41 133.016 118.382 133.729 125.459L134.167 129.795H131.445C124.667 129.795 113.179 126.821 105.586 123.101C99.9235 120.327 92.202 114.421 88.2455 109.84C84.7168 105.754 84.5827 106.848 89.7424 97.577C91.5737 94.2863 93.2595 92.091 94.5235 91.3519C96.3745 90.27 115.901 81.6811 116.51 81.6811C116.668 81.6811 116.805 85.7725 116.813 90.7723ZM417.172 83.6392C418.075 85.2779 417.021 87.8352 415.442 87.8352C413.682 87.8352 412.96 84.164 414.476 82.9119C415.683 81.9144 416.314 82.0851 417.172 83.6392ZM402.15 83.0764C403.296 84.2166 402.731 87.509 401.353 87.7244C399.868 87.9566 398.623 85.9923 399.152 84.2507C399.656 82.5919 401.097 82.0274 402.15 83.0764ZM166.699 85.2236C172.553 86.8477 177.58 88.3723 177.87 88.6112C178.159 88.85 178.499 94.4698 178.625 101.099L178.853 113.152L175.579 115.929C173.777 117.456 170.43 119.82 168.141 121.182C163.741 123.799 154.4 127.642 153.526 127.196C153.241 127.05 152.988 124.743 152.963 122.069C152.939 119.395 152.539 114.991 152.074 112.282L151.229 107.358L153.736 105.486C156.649 103.312 158.922 102.569 159.982 103.445C161.012 104.296 161.809 104.213 161.809 103.256C161.809 102.814 160.287 98.094 158.425 92.7663C156.564 87.4385 155.041 82.8907 155.04 82.6602C155.038 82.0084 155.39 82.0856 166.699 85.2236ZM432.209 84.804C432.835 86.1512 432.701 88.3437 431.919 89.5505C430.694 91.4426 430.244 90.7321 430.48 87.2768C430.704 83.9979 431.383 83.0261 432.209 84.804ZM389.516 84.2921C390.176 84.8376 390.068 91.1919 389.399 91.1919C389.086 91.1919 388.477 90.5508 388.045 89.767C386.452 86.8785 387.577 82.6904 389.516 84.2921ZM408.4 93.0007C410.193 94.1537 410.284 94.1582 411.616 93.1624C412.415 92.5649 412.986 92.4116 412.986 92.7953C412.986 93.1573 412.21 93.7459 411.262 94.1028C409.745 94.674 409.322 94.5728 407.724 93.2513C405.562 91.4655 405.848 91.3592 408.4 93.0007ZM180.561 96.5376C181.007 98.0934 181.702 101.555 182.104 104.231C182.806 108.9 182.773 109.167 181.293 110.825L179.75 112.553L179.554 108.054C179.446 105.58 179.446 101.34 179.554 98.6322L179.75 93.7095L180.561 96.5376ZM149.237 98.8425C149.491 101.25 150.19 105.99 150.791 109.374C151.391 112.759 151.908 118.279 151.937 121.641L151.992 127.753L148.607 128.483C146.745 128.884 142.903 129.376 140.069 129.577L134.917 129.942L134.448 124.693C133.989 119.548 131.203 103.586 130.042 99.444C129.367 97.0333 129.271 97.083 132.463 98.1852C135.3 99.1648 139.925 99.2761 142.639 98.4308C143.687 98.1041 145.497 97.078 146.661 96.1504L148.777 94.4642L149.237 98.8425ZM404.794 97.4629C407.672 98.9858 412.51 99.0814 415.356 97.671L417.387 96.6651L415.816 97.8266C413.504 99.5351 410.085 99.8887 406.579 98.7821C404.949 98.2674 403.249 97.4819 402.801 97.0366C401.706 95.9468 402.076 96.0257 404.794 97.4629ZM319.556 101.91C322.3 102.561 324.63 104.193 326.222 106.577C327.227 108.083 327.363 112.106 327.549 145.642C327.69 171.149 327.52 183.965 327.015 185.974C326.159 189.385 323.223 192.145 319.517 193.023C318.16 193.344 305.094 193.577 288.079 193.583L258.963 193.593L238.313 200.841C217.828 208.031 217.69 208.07 220.874 205.726C222.639 204.427 226.942 201.224 230.435 198.608L236.786 193.853L230.88 193.53C223.705 193.139 220.524 191.785 218.614 188.311C217.499 186.282 217.353 184.469 217.34 172.453L217.325 158.887H159.756C98.2208 158.887 98.6378 158.904 96.8688 156.173C96.4531 155.531 96.1376 151.922 96.1376 147.81C96.1376 140.741 96.1782 140.544 97.9222 139.102L99.7075 137.627H158.516H217.325V123.258C217.325 106.997 217.669 105.652 222.512 102.941L225.011 101.542L271.099 101.445C300.316 101.384 318.054 101.554 319.556 101.91ZM399.429 108.241C401.846 110.367 405.023 111.33 409.703 111.357C412.067 111.371 415.83 111.693 418.064 112.075L422.126 112.769L422.907 115.827C423.337 117.509 423.718 119.835 423.754 120.995C423.813 122.916 423.539 123.252 420.706 124.737C413.368 128.582 404.471 127.899 397.14 122.928L395.174 121.594L396.05 114.49C396.532 110.582 397.145 107.274 397.411 107.138C397.677 107.002 398.585 107.498 399.429 108.241ZM318.047 107.231C319.589 107.744 320.911 110.656 320.911 113.542V116.368H273.18H225.45V112.986C225.45 110.14 225.714 109.385 227.112 108.23L228.773 106.857L272.98 106.901C297.294 106.925 317.574 107.074 318.047 107.231ZM106.19 112.025C107.097 117.386 107.207 121.962 106.429 121.962C106.131 121.962 106.017 121.049 106.174 119.932C106.332 118.816 106.089 115.651 105.634 112.9C105.179 110.149 104.942 107.787 105.108 107.65C105.273 107.513 105.76 109.482 106.19 112.025ZM394.546 118.834C394.204 121.34 394.293 121.5 397.211 123.622C400.954 126.344 405.961 127.81 411.294 127.744C415.929 127.686 419.366 126.619 422.695 124.203C424.827 122.656 424.98 122.331 424.664 120.01L424.32 117.494L426.27 118.01C427.342 118.294 431.26 119.323 434.977 120.297C443.867 122.626 444.267 122.825 450.426 127.977L455.708 132.394L451.179 136.436C432.639 152.984 403.131 156.57 379.559 145.139C373.308 142.108 363.395 134.203 360.871 130.237L359.194 127.603L360.917 126.041C361.865 125.182 363.156 123.791 363.788 122.949C365.958 120.056 366.786 119.871 392.264 116.582L394.899 116.242L394.546 118.834ZM320.911 152.173V186.859H273.18H225.45V172.542C225.45 159.071 225.53 158.14 226.804 156.801C228.004 155.54 228.158 154.532 228.158 147.902C228.158 141.17 228.022 140.312 226.804 139.305C225.547 138.267 225.45 137.441 225.45 127.837V117.487H273.18H320.911V152.173ZM396.399 125.707C399.75 128.355 401.731 130.189 400.8 129.783C397.925 128.532 388.483 120.655 390.113 120.868C390.219 120.882 393.048 123.06 396.399 125.707ZM395.738 128.689C397.563 130.22 398.75 131.473 398.377 131.473C397.497 131.473 391.638 126.549 392.082 126.183C392.267 126.029 393.912 127.157 395.738 128.689ZM405.768 131.259C406.825 131.733 407.55 132.236 407.379 132.377C406.927 132.75 403.508 131.378 403.508 130.823C403.508 130.235 403.462 130.227 405.768 131.259ZM225.819 139.56C227.411 140.875 227.481 141.234 227.481 148.134C227.481 154.937 227.394 155.402 225.914 156.551L224.347 157.768H161.984H99.6209L98.2181 156.293C96.9696 154.982 96.8146 154.053 96.8146 147.876C96.8146 141.25 96.8904 140.87 98.4767 139.56L100.138 138.187H162.148H224.157L225.819 139.56ZM209.793 141.708C210.206 142.568 210.732 143.889 210.961 144.645C211.343 145.898 211.715 146.021 215.198 146.036L219.018 146.053L216.109 148.134L213.2 150.215L214.254 152.68C214.835 154.035 215.159 155.269 214.975 155.421C214.792 155.572 213.477 155.029 212.054 154.214C210.631 153.399 209.234 152.732 208.951 152.732C208.666 152.732 207.379 153.397 206.091 154.209C204.802 155.021 203.57 155.539 203.352 155.359C203.134 155.178 203.431 153.879 204.011 152.471L205.066 149.912L202.395 148.45C200.925 147.646 199.723 146.784 199.723 146.533C199.723 146.282 201.297 146.002 203.222 145.908L206.721 145.739L207.882 142.942L209.042 140.145L209.793 141.708ZM163.253 143.105L164.24 145.739L167.764 145.908C169.702 146.002 171.281 146.253 171.273 146.468C171.265 146.682 170.064 147.557 168.602 148.411L165.946 149.963L166.9 152.58C167.424 154.02 167.739 155.291 167.601 155.406C167.463 155.52 166.103 154.932 164.58 154.099L161.809 152.584L159.039 154.099C157.515 154.932 156.141 155.508 155.985 155.379C155.829 155.25 156.179 154.035 156.762 152.68L157.823 150.215L155.61 148.676C154.393 147.83 153.157 147.138 152.864 147.138C152.57 147.138 152.331 146.886 152.331 146.578C152.331 146.271 153.94 146.019 155.907 146.019H159.482L160.384 143.495C160.88 142.107 161.507 140.859 161.776 140.721C162.045 140.583 162.71 141.656 163.253 143.105ZM139.557 143.105L140.544 145.739L144.068 145.908C146.006 146.002 147.585 146.253 147.577 146.468C147.569 146.682 146.371 147.555 144.914 148.406L142.265 149.954L143.312 152.492C143.888 153.889 144.181 155.178 143.963 155.359C143.745 155.539 142.512 155.021 141.224 154.209C138.352 152.4 138.247 152.398 135.405 154.131C134.143 154.9 132.88 155.53 132.598 155.53C132.316 155.53 132.528 154.334 133.069 152.872L134.052 150.215L131.174 148.134L128.296 146.053L132.101 146.036L135.906 146.019L136.764 143.487C137.236 142.094 137.835 140.846 138.096 140.713C138.357 140.58 139.014 141.656 139.557 143.105ZM116.108 143.217L117.234 146.019H120.565C122.397 146.019 123.896 146.237 123.896 146.504C123.896 146.771 122.693 147.646 121.223 148.45L118.552 149.912L119.607 152.471C120.188 153.879 120.496 155.168 120.293 155.337C120.089 155.505 118.884 154.988 117.614 154.188C114.774 152.398 114.555 152.396 111.709 154.131C110.447 154.9 109.199 155.53 108.936 155.53C108.672 155.53 108.895 154.334 109.43 152.872L110.403 150.215L107.501 148.134L104.6 146.053L108.405 146.036L112.21 146.019L113.068 143.487C113.54 142.094 114.163 140.834 114.454 140.685C114.744 140.537 115.489 141.676 116.108 143.217ZM187.025 143.362C187.97 145.713 188.02 145.741 191.483 145.908C193.408 146.002 194.984 146.316 194.984 146.608C194.984 146.9 194.755 147.145 194.476 147.153C194.196 147.161 192.965 147.856 191.74 148.696L189.512 150.224L190.563 152.684C191.14 154.038 191.481 155.254 191.319 155.387C191.158 155.52 189.866 154.978 188.447 154.181C187.028 153.384 185.613 152.732 185.303 152.732C184.992 152.732 183.683 153.397 182.395 154.209C181.107 155.021 179.907 155.566 179.731 155.42C179.554 155.274 179.838 153.979 180.361 152.542L181.312 149.93L178.684 148.394C177.239 147.549 176.049 146.682 176.041 146.468C176.034 146.253 177.602 146.002 179.528 145.908C182.99 145.741 183.04 145.713 183.985 143.362C184.511 142.054 185.195 140.984 185.505 140.984C185.815 140.984 186.5 142.054 187.025 143.362ZM290.444 153.572V165.041H262.686H234.928V153.572V142.103H262.686H290.444V153.572ZM289.767 153.352C289.767 163.26 289.681 164.014 288.595 163.669C287.95 163.465 283.673 161.546 279.091 159.404L270.758 155.511L266.031 156.697L261.305 157.883L258.78 156.319C257.391 155.459 254.07 153.293 251.399 151.506C248.729 149.719 246.263 148.257 245.919 148.257C245.575 148.257 243.495 149.214 241.296 150.383C239.097 151.553 236.917 152.701 236.451 152.934C235.797 153.262 235.605 152.142 235.605 148.01V142.662H262.686H289.767V153.352ZM210.31 144.48C210.875 146.116 211.241 146.327 213.962 146.578L216.987 146.858L214.721 148.194C212.392 149.566 212.228 150.419 213.686 153.572C214.128 154.528 213.836 154.461 211.672 153.105L209.141 151.518L206.7 153.057L204.259 154.595L204.693 153.244C204.932 152.501 205.31 151.354 205.532 150.695C205.844 149.768 205.463 149.267 203.844 148.477C201.044 147.109 201.209 146.676 204.609 146.47C207.183 146.315 207.527 146.119 208.093 144.48C208.437 143.48 208.936 142.662 209.201 142.662C209.466 142.662 209.965 143.48 210.31 144.48ZM186.614 144.48C187.179 146.116 187.545 146.327 190.266 146.578L193.291 146.858L191.025 148.194C188.696 149.566 188.532 150.419 189.99 153.572C190.432 154.528 190.14 154.461 187.976 153.105L185.445 151.518L183.106 152.993C180.569 154.592 180.363 154.414 181.536 151.632C182.266 149.903 182.185 149.726 180.021 148.332L177.734 146.858L180.752 146.578C183.465 146.327 183.832 146.115 184.396 144.48C184.741 143.48 185.24 142.662 185.505 142.662C185.77 142.662 186.269 143.48 186.614 144.48ZM162.917 144.48C163.483 146.119 163.827 146.315 166.401 146.47C169.8 146.676 169.967 147.109 167.17 148.474C165.564 149.259 165.173 149.77 165.472 150.693C165.686 151.353 166.065 152.504 166.314 153.25L166.768 154.606L164.319 153.063L161.869 151.518L159.339 153.105C157.174 154.461 156.882 154.528 157.325 153.572C158.782 150.419 158.618 149.566 156.289 148.194L154.023 146.858L157.048 146.578C159.769 146.327 160.136 146.116 160.7 144.48C161.046 143.48 161.544 142.662 161.809 142.662C162.074 142.662 162.573 143.48 162.917 144.48ZM139.222 144.48C139.788 146.119 140.131 146.315 142.705 146.47C146.104 146.676 146.271 147.109 143.474 148.474C141.868 149.259 141.477 149.77 141.776 150.693C141.99 151.353 142.369 152.504 142.618 153.25L143.072 154.606L140.623 153.063L138.173 151.518L135.643 153.105C133.654 154.351 133.213 154.47 133.584 153.66C135.084 150.389 134.98 149.797 132.627 148.185L130.327 146.609L133.513 146.594C136.612 146.579 136.71 146.526 137.142 144.62C137.698 142.174 138.41 142.126 139.222 144.48ZM115.769 144.615C116.488 146.416 116.773 146.578 119.209 146.578C122.404 146.578 122.567 147.113 119.786 148.47C118.326 149.183 117.837 149.76 118.141 150.41C118.379 150.918 118.754 152.07 118.974 152.969L119.372 154.604L117.025 153.124L114.677 151.644L112.067 153.11C110.014 154.263 109.554 154.368 109.909 153.602C111.388 150.417 111.275 149.791 108.931 148.185L106.631 146.609L109.794 146.594C112.748 146.58 112.985 146.469 113.4 144.906C114.046 142.479 114.875 142.376 115.769 144.615ZM282.689 146.833C283.603 147.588 284.351 148.687 284.351 149.275C284.351 151.091 281.754 153.292 279.612 153.292C277.47 153.292 274.873 151.091 274.873 149.275C274.873 147.849 277.841 145.459 279.612 145.459C280.39 145.459 281.775 146.078 282.689 146.833ZM287.567 169.93C285.426 170.04 281.923 170.04 279.781 169.93C277.64 169.819 279.392 169.728 283.674 169.728C287.956 169.728 289.708 169.819 287.567 169.93ZM263.152 169.935C257.264 170.028 247.819 170.028 242.164 169.935C236.508 169.841 241.326 169.765 252.869 169.765C264.413 169.765 269.039 169.842 263.152 169.935ZM101.892 172.009C107.919 173.12 112.272 174.634 117.533 177.446C126.024 181.985 129.904 185.557 128.973 187.978C128.749 188.562 127.096 189.62 125.301 190.328C122.3 191.511 122.002 191.81 121.618 194.032C121.389 195.362 120.093 198.086 118.739 200.086C116.573 203.287 116.329 204.031 116.702 206.283C117.221 209.41 116.419 210.357 113.253 210.357C111.474 210.357 110.153 210.901 107.825 212.595C104.432 215.062 103.195 215.273 100.035 213.923C97.9439 213.029 97.8795 213.041 96.3914 214.583C95.0374 215.987 94.9798 216.274 95.8458 217.295C97.495 219.24 97.0712 221.004 94.7835 221.717C93.3665 222.159 92.7524 222.726 92.7524 223.594C92.7524 224.277 92.4877 224.972 92.1641 225.137C91.8405 225.303 92.5764 227.646 93.7998 230.345C96.7563 236.868 98.3196 243.218 97.5289 245.495C96.9771 247.085 97.1348 247.385 99.2688 248.801L101.616 250.358L122.742 249.719C134.361 249.367 144.63 249.213 145.561 249.377C147.502 249.719 159.069 256.105 162.244 258.587C163.413 259.502 164.93 261.109 165.613 262.158C166.825 264.016 166.965 264.065 171.103 264.065C174.898 264.065 175.35 264.184 175.35 265.184C175.35 266.262 175.801 266.303 187.802 266.303C198.247 266.303 200.318 266.167 200.645 265.464C200.968 264.766 202.867 264.624 211.909 264.624C220.417 264.624 222.861 264.46 223.135 263.868C223.328 263.453 218.673 255.899 212.789 247.082C204.927 235.301 201.963 231.312 201.604 232.034C201.335 232.573 200.019 237.798 198.679 243.645C194.791 260.603 195.148 259.59 193.065 259.581C192.072 259.576 190.915 259.387 190.494 259.161C189.948 258.868 191.806 249.895 196.948 227.98L204.167 197.209L206.479 197.367C207.751 197.453 208.926 197.635 209.09 197.771C209.255 197.907 207.832 204.679 205.93 212.82L202.47 227.622L205.593 232.277C221.92 256.608 225.576 262.258 225.619 263.226C225.646 263.841 225.434 264.785 225.148 265.324C224.66 266.242 225.739 266.303 242.641 266.303H260.655V270.219V274.135H256.336H252.017L251.592 313.157C250.849 381.548 250.828 387.982 251.346 388.125C251.626 388.202 265.03 388.265 281.135 388.265L310.417 388.264L310.302 374.278C310.193 360.83 310.238 360.292 311.487 360.292C312.635 360.292 312.786 359.868 312.786 356.655C312.786 354.51 312.497 353.019 312.082 353.019C311.694 353.019 310.501 353.554 309.429 354.209C306.867 355.774 298.897 356.33 296.894 355.082C295.731 354.357 295.67 354.079 296.421 352.919C297.382 351.435 302.728 348.299 305.339 347.688C306.27 347.47 307.488 346.964 308.047 346.563C308.606 346.162 309.924 345.655 310.976 345.438C312.636 345.096 312.831 344.85 312.445 343.58C312.201 342.775 311.058 341.466 309.906 340.671C307.603 339.082 307.679 337.475 310.081 336.956C311.172 336.72 311.432 336.191 311.432 334.212C311.432 331.546 311.336 331.464 309.282 332.371C307.17 333.306 302.57 331.598 299.299 328.666C296.16 325.851 295.858 324.672 298.095 323.97C300.133 323.329 306.396 324.262 309.232 325.627C312.098 327.007 312.029 326.416 309.063 324.171C306.356 322.123 306.045 320.449 308.145 319.234C309.444 318.482 309.509 318.22 308.767 316.74C308.311 315.831 307.201 314.514 306.3 313.814C305.399 313.115 304.662 312.291 304.662 311.983C304.662 310.913 307.883 313.933 309.079 316.125C309.742 317.339 310.694 318.332 311.197 318.332C312.45 318.332 312.37 317.758 310.323 312.12L308.535 307.2L304.351 307.523C300.361 307.831 300.053 307.763 297.709 306.062C293.675 303.136 292.224 299.217 292.177 291.12C292.142 285.198 292.302 284.177 293.427 283.147C296.074 280.725 300.694 281.941 305.337 286.284C313.179 293.621 315.294 301.193 310.643 305.284L309.145 306.601L311.142 312.275C312.616 316.459 313.448 317.985 314.317 318.091C314.964 318.169 315.754 317.851 316.07 317.382C316.58 316.631 316.695 316.636 317.065 317.432C317.731 318.867 319.491 318.477 319.947 316.794C320.176 315.947 321.248 312.386 322.33 308.879C323.411 305.373 324.296 302.414 324.296 302.306C324.296 302.197 323.754 302.108 323.093 302.108C321.125 302.108 318.821 300.434 317.407 297.978L316.081 295.674L316.383 305.185C316.549 310.416 316.448 313.941 316.158 313.018C315.867 312.094 315.45 304.29 315.23 295.674C315.01 287.059 314.639 278.969 314.406 277.698C313.996 275.455 313.935 275.408 312.326 276.098C310.249 276.988 308.593 276.646 306.633 274.922C304.503 273.048 302.043 273.227 297.954 275.551C295.11 277.167 294.407 277.369 294.079 276.664C293.476 275.364 296.787 272.168 300.118 270.835C303.361 269.539 308.358 269.291 311.025 270.295C312.002 270.663 313.169 271.873 313.798 273.171C314.699 275.033 315.85 283.622 316.212 291.199C316.283 292.687 316.388 292.592 317.138 290.359C318.782 285.465 323.727 279.172 327.042 277.755C329.66 276.636 332.655 276.72 334.002 277.951C336.587 280.31 339.608 290.576 338.833 294.365C338.043 298.232 333.484 301.442 327.512 302.337C326.115 302.547 324.973 302.829 324.973 302.964C324.973 303.099 324.231 305.324 323.325 307.907C320.967 314.633 320.221 318.332 321.222 318.332C321.665 318.332 322.735 316.464 323.602 314.182C325.114 310.196 328.769 304.499 329.451 305.063C329.631 305.212 329.015 306.263 328.082 307.399C326.329 309.535 324.109 314.002 323.346 316.934C322.943 318.482 323.096 318.66 325.327 319.237C327.189 319.717 328.322 319.69 330.252 319.121C331.631 318.715 333.52 318.363 334.451 318.339C335.382 318.316 336.735 317.927 337.458 317.475C341.633 314.866 354.762 319.214 354.762 323.206C354.762 324.117 354.199 324.691 352.911 325.096C350.199 325.948 346.178 324.834 340.378 321.625C334.941 318.616 335.136 318.663 331.574 319.481C329.344 319.992 329.035 320.273 329.035 321.781C329.035 323.053 328.354 324.028 326.417 325.532C322.266 328.752 321.597 329.13 321.534 328.285C321.505 327.888 321.154 328.306 320.755 329.214C320.345 330.15 320.294 330.936 320.64 331.031C320.975 331.123 321.145 332.584 321.017 334.276C320.739 337.972 321.762 338.328 323.047 334.981C323.632 333.457 324.417 332.536 325.243 332.406C325.95 332.295 327.749 331.475 329.238 330.583C332.706 328.507 336.275 328.392 338.43 330.288C342.913 334.231 340.307 339.592 333.907 339.592C331.518 339.592 328.665 337.539 327.299 334.837C325.312 330.907 323.722 332.841 323.227 339.794L322.842 345.19L324.631 344.628C327.563 343.707 332.845 345.309 338.06 348.7C344.017 352.575 342.439 355.257 334.203 355.257C331.541 355.257 328.359 355.018 327.13 354.727C323.699 353.914 322.942 354.425 322.942 357.554C322.942 360.097 323.061 360.292 324.623 360.292H326.304L326.484 374.286L326.665 388.281L376.596 388.28C408.018 388.279 426.527 388.478 426.527 388.816C426.527 389.157 351.289 389.345 219.695 389.331C94.881 389.318 12.8633 389.106 12.8633 388.796C12.8633 388.503 20.2489 388.22 30.1186 388.135L47.3734 387.985L46.3375 386.336C45.7674 385.428 45.391 384.219 45.5 383.649C45.6361 382.941 51.1789 380.057 62.9632 374.564L80.2274 366.518L80.4048 346.061L80.5829 325.605H75.8349H71.0876V322.528V319.451H68.7579C67.4763 319.451 66.2204 319.729 65.9665 320.068C64.9469 321.432 58.5267 323.357 54.9811 323.362C44.9679 323.378 42.19 318.647 41.5116 300.43C41.1745 291.373 40.9714 289.957 39.8841 289.098C38.134 287.717 37.4068 284.9 36.8875 277.492C36.5673 272.927 35.7495 268.864 34.0718 263.505C32.2587 257.713 31.7895 255.256 32.0597 252.966C32.8105 246.597 37.4874 242.156 42.0573 243.472C45.917 244.584 48.6245 248.846 50.5195 256.792C51.7151 261.807 52.8633 282.361 52.103 285.146C51.4626 287.494 49.2636 289.571 46.9008 290.061L45.1845 290.417L45.5555 300.878C45.9394 311.703 46.8879 316.327 49.1485 318.391C50.7118 319.819 55.1632 320.796 56.7095 320.052C57.7718 319.54 57.7488 319.484 56.4672 319.468C53.7381 319.436 52.8078 317.771 52.8078 312.92C52.8078 308.004 53.7259 306.584 56.9052 306.584C58.5043 306.584 58.4976 306.563 56.4374 305.007C52.1017 301.736 52.0211 299.638 55.4726 279.908C56.8097 272.262 57.1977 268.604 56.7231 268.124C55.8748 267.267 56.3297 263.362 58.9499 249.011C60.0399 243.04 60.9322 237.816 60.9322 237.403C60.9322 236.884 59.9789 236.651 57.8517 236.651C54.3813 236.651 51.8729 235.75 49.4965 233.647C47.9827 232.308 47.9075 231.942 48.3401 228L48.8019 223.784L45.6259 222.246C36.6526 217.898 33.8511 215.119 33.8511 210.563C33.8511 206.204 35.8239 204.6 43.6084 202.626C51.0205 200.746 52.646 199.401 51.5337 196.071C50.6082 193.302 51.6732 189.648 53.9114 187.91C55.7888 186.453 59.5943 186.256 69.7639 187.091C74.5803 187.487 75.9066 187.413 77.6838 186.654C80.2152 185.572 82.6058 183.065 84.4487 179.558C85.8291 176.932 89.4012 173.19 91.3219 172.357C93.4863 171.42 97.908 171.273 101.892 172.009ZM288.582 174.401C287 174.519 284.41 174.519 282.828 174.401C281.246 174.284 282.54 174.187 285.705 174.187C288.87 174.187 290.165 174.284 288.582 174.401ZM270.679 174.409C266.696 174.508 259.994 174.508 255.784 174.41C251.574 174.311 254.833 174.231 263.025 174.23C271.217 174.23 274.661 174.31 270.679 174.409ZM241.845 174.405C239.878 174.518 236.831 174.517 235.074 174.403C233.318 174.287 234.928 174.195 238.652 174.196C242.375 174.198 243.812 174.292 241.845 174.405ZM285.197 178.884C281.753 178.986 276.117 178.986 272.672 178.884C269.228 178.783 272.046 178.7 278.935 178.7C285.824 178.7 288.642 178.783 285.197 178.884ZM256.047 178.886C251.464 178.983 244.152 178.982 239.798 178.885C235.444 178.788 239.193 178.709 248.13 178.709C257.067 178.709 260.629 178.789 256.047 178.886ZM289.937 183.338C289.098 183.471 287.728 183.471 286.89 183.338C286.052 183.205 286.738 183.095 288.413 183.095C290.089 183.095 290.775 183.205 289.937 183.338ZM274.324 183.362C268.995 183.456 260.465 183.456 255.367 183.361C250.27 183.267 254.63 183.189 265.056 183.189C275.482 183.189 279.652 183.267 274.324 183.362ZM240.832 183.355C239.052 183.471 236.31 183.469 234.739 183.352C233.167 183.235 234.623 183.14 237.975 183.142C241.326 183.144 242.612 183.24 240.832 183.355ZM120.922 194.159C120.661 195.507 119.475 197.878 118.286 199.427C116.431 201.846 116.125 202.759 116.118 205.881L116.11 209.518L113.7 209.56C111.942 209.591 110.323 210.234 107.715 211.938C105.749 213.222 103.592 214.273 102.921 214.273C102.25 214.273 100.221 213.432 98.4117 212.404C95.6102 210.813 95.0909 210.229 94.9108 208.471C94.7943 207.336 95.1857 205.025 95.7794 203.336C96.6338 200.908 96.7076 199.797 96.1301 198.026C95.317 195.529 96.17 193.328 98.3772 192.226C99.3859 191.722 99.843 191.886 100.973 193.153C101.971 194.274 102.927 194.69 104.487 194.685C106.77 194.677 117.947 192.854 120.107 192.136C121.296 191.742 121.359 191.9 120.922 194.159ZM417.438 195.843C419.328 196.444 422.15 197.838 423.71 198.94C426.89 201.19 430.589 205.349 430.589 206.676C430.589 207.209 432.325 208.199 435.055 209.222C450.731 215.095 463.016 227.564 467.143 241.788C468.993 248.166 468.983 257.61 467.121 264.065C464.462 273.275 456.692 283.865 448.458 289.5C426.652 304.423 395.907 304.726 373.868 290.235C358.991 280.453 350.371 263.246 352.701 247.98C353.111 245.288 353.515 242.582 353.597 241.966C353.744 240.86 353.293 240.846 314.761 240.703L275.775 240.559L274.139 239.119L272.503 237.68V222.353V207.025L274.38 205.474L276.257 203.923L327.696 203.773C356.25 203.69 379.135 203.837 379.135 204.106C379.135 204.371 377.916 206.147 376.427 208.051C374.591 210.398 373.719 212.14 373.719 213.457V215.4L377.67 213.172C379.842 211.946 383.651 210.158 386.133 209.199C390.296 207.589 390.644 207.318 390.647 205.689C390.65 203.173 392.846 200.527 396.534 198.595C403.966 194.7 410.951 193.781 417.438 195.843ZM415.356 196.001C419.676 197.183 421.934 198.351 424.903 200.941C430.461 205.789 430.653 206.671 429.206 220.707C428.008 232.327 426.712 236.059 421.823 241.966L420.434 243.645L420.861 240.208C421.48 235.235 420.794 232.918 418.406 231.897C417.324 231.435 415.814 231.057 415.051 231.057C413.351 231.057 413.282 230.571 414.847 229.626C415.498 229.232 415.819 228.735 415.56 228.521C415.3 228.307 414.27 228.664 413.269 229.315C410.963 230.813 408.252 230.822 405.969 229.338C404.988 228.7 404.185 228.433 404.185 228.745C404.185 229.057 404.49 229.468 404.862 229.658C406.189 230.336 405.501 230.919 402.982 231.251C401.576 231.437 399.884 231.917 399.222 232.317C397.552 233.326 396.77 236.696 397.364 240.318C397.64 241.994 397.769 243.365 397.651 243.365C396.992 243.365 393.848 237.237 392.64 233.596C391.364 229.754 391.252 228.122 391.446 216.255L391.66 203.155L393.691 201.403C394.808 200.44 397.869 198.774 400.492 197.702C405.982 195.46 411.194 194.863 415.356 196.001ZM116.99 197.601C117.437 197.97 117.793 198.662 117.782 199.14C117.765 199.834 117.619 199.805 117.047 198.992C116.654 198.434 115.673 197.758 114.867 197.489C113.446 197.015 113.444 197 114.79 196.965C115.553 196.946 116.543 197.232 116.99 197.601ZM207.001 197.919C207.839 198.033 208.524 198.275 208.524 198.455C208.524 198.832 195.17 255.855 194.633 257.771C194.155 259.479 190.921 259.58 190.921 257.887C190.921 256.132 204.544 198.37 205.041 198.02C205.281 197.851 206.163 197.805 207.001 197.919ZM114.417 201.29C114.417 201.586 113.925 202.165 113.324 202.578C112.377 203.227 112.264 203.186 112.478 202.273C112.732 201.186 114.417 200.332 114.417 201.29ZM106.812 206.657C107.255 207.461 107.929 208.119 108.31 208.119C108.69 208.119 109.001 208.428 109.001 208.805C109.001 209.183 108.203 208.833 107.228 208.027C106.252 207.221 105.579 206.254 105.73 205.878C105.881 205.502 106.368 205.853 106.812 206.657ZM361.45 207.365C365.984 209.274 367.862 213.769 365.77 217.704L364.47 220.147L363.34 218.357C362.718 217.372 361.676 216.318 361.024 216.014C360.075 215.572 360.008 215.321 360.686 214.755C361.849 213.785 361.747 211.419 360.478 209.922C359.1 208.296 355.305 208.23 353.408 209.797C351.946 211.005 351.602 213.676 352.783 214.652C353.304 215.083 353.043 215.643 351.868 216.614C350.963 217.361 350.084 218.318 349.914 218.74C349.42 219.963 348.101 218.886 347.353 216.648C346.403 213.802 347.441 211.018 350.31 208.72C353.211 206.396 357.817 205.836 361.45 207.365ZM437.06 210.804C452.693 217.664 463.226 229.165 466.865 243.351C468.464 249.581 467.821 263.033 465.797 265.74C465.341 266.35 464.542 266.007 462.12 264.162C458.232 261.2 451.104 257.375 442.682 253.729C436.778 251.173 435.723 250.462 431.616 246.258C429.119 243.702 426.648 241.475 426.125 241.309C424.744 240.871 424.949 239.398 426.858 236.007C427.786 234.362 428.548 232.636 428.551 232.172C428.555 231.709 429.504 230.984 430.661 230.561C433.128 229.658 434.621 227.114 435.109 222.98C435.508 219.606 434.291 217.715 432.21 218.476C431.008 218.916 431.022 218.959 432.419 219.162C434.464 219.46 434.887 220.989 433.952 224.709C433.224 227.61 430.43 231.112 429.475 230.322C429.279 230.161 429.466 227.805 429.892 225.088C430.316 222.371 430.632 217.567 430.594 214.413C430.54 210.048 430.734 208.682 431.403 208.693C431.886 208.701 434.432 209.651 437.06 210.804ZM390.39 210.427C390.158 211.388 389.967 213.537 389.967 215.202C389.967 218.134 389.922 218.208 388.497 217.579C383.898 215.544 384.473 226.169 389.11 228.884C389.94 229.371 391.099 231.591 392.23 234.858C394.692 241.971 394.62 242.893 391.479 244.611C389.193 245.861 387.261 248.152 386.343 250.702C386.164 251.198 383.327 252.801 380.038 254.263C376.748 255.726 372.011 258.039 369.511 259.404C365.439 261.628 364.694 262.335 362.355 266.195C360.92 268.565 359.538 271.132 359.285 271.9C358.663 273.784 357.938 272.837 355.827 267.389C352.876 259.772 352.332 247.247 354.726 242.045C355.404 240.571 355.423 240.568 362.9 240.568C369.955 240.568 370.493 240.487 372.057 239.194C373.706 237.831 373.719 237.743 373.719 226.998V216.176L378.966 213.325C383.917 210.634 388.618 208.678 390.135 208.678C390.534 208.678 390.64 209.398 390.39 210.427ZM359.735 210.261C360.351 210.824 360.855 211.831 360.855 212.499C360.855 214.021 358.584 215.951 356.793 215.951C354.956 215.951 352.731 214.007 352.731 212.402C352.731 209.622 357.454 208.178 359.735 210.261ZM339.19 209.797C339.19 210.158 332.195 210.357 319.556 210.357C306.918 210.357 299.923 210.158 299.923 209.797C299.923 209.437 306.918 209.238 319.556 209.238C332.195 209.238 339.19 209.437 339.19 209.797ZM338.852 212.595C339.126 212.961 334.119 213.154 324.336 213.154C314.831 213.154 309.401 212.95 309.401 212.595C309.401 212.239 314.691 212.035 323.917 212.035C332.864 212.035 338.594 212.25 338.852 212.595ZM420.796 213.673C422.868 214.387 424.173 215.883 423.331 216.578C422.295 217.434 413.325 215.363 413.325 214.267C413.325 213.301 418.516 212.888 420.796 213.673ZM406.216 214.205C406.216 215.033 405.274 215.452 401.778 216.177C397.171 217.134 396.061 217.023 396.061 215.61C396.061 214.492 400.106 213.154 403.486 213.154C405.705 213.154 406.216 213.35 406.216 214.205ZM361.871 217.733C364.071 219.893 364.005 220.769 361.566 221.811C358.915 222.944 354.425 222.894 351.989 221.705C349.616 220.547 349.539 219.835 351.576 217.878C352.83 216.673 353.809 216.355 356.655 216.229C359.844 216.086 360.341 216.23 361.871 217.733ZM95.0834 217.195C96.9094 219.348 96.0049 221.546 93.294 221.546C92.4457 221.546 92.0754 221.971 92.0754 222.945C92.0754 223.714 91.7355 224.343 91.3198 224.343C90.5548 224.343 85.3051 219.885 85.3051 219.235C85.3051 219.041 86.6334 218.605 88.257 218.267C89.8805 217.93 91.594 217.27 92.0639 216.802C93.2216 215.649 93.8418 215.73 95.0834 217.195ZM389.033 218.617C389.451 218.843 389.995 221.294 390.244 224.064L390.696 229.099L389.009 227.559C384.963 223.867 384.983 216.422 389.033 218.617ZM339.19 219.308C339.19 219.672 329.035 219.868 310.078 219.868C291.121 219.868 280.966 219.672 280.966 219.308C280.966 218.944 291.121 218.749 310.078 218.749C329.035 218.749 339.19 218.944 339.19 219.308ZM417.48 220.147C418.023 221.314 417.222 222.805 416.201 222.528C414.872 222.168 414.7 219.308 416.009 219.308C416.604 219.308 417.266 219.686 417.48 220.147ZM401.702 219.681C402.413 220.269 402.23 222.001 401.412 222.418C400.331 222.97 398.643 221.347 399.155 220.247C399.598 219.291 400.885 219.006 401.702 219.681ZM87.6321 222.474C90.502 225.139 91.3868 226.578 93.8918 232.653C96.0881 237.98 96.8091 240.583 96.8119 243.187C96.8145 246.386 96.6636 246.735 94.8011 247.83C92.9569 248.915 92.8215 249.218 93.1877 251.428C93.5648 253.703 93.4823 253.863 91.7362 254.225C90.718 254.435 89.741 254.49 89.565 254.345C89.3896 254.199 88.221 248.082 86.9685 240.751C85.7167 233.419 84.3675 226.495 83.9707 225.364C83.0114 222.627 79.7942 220.427 76.7502 220.427C75.3508 220.427 74.5627 220.2 74.8112 219.868C75.0414 219.56 77.2682 219.322 79.7596 219.339L84.2896 219.37L87.6321 222.474ZM80.4265 222.374C81.5233 223.137 82.7439 224.459 83.1386 225.311C83.5327 226.163 84.8 232.525 85.9537 239.449C87.1074 246.372 88.2197 252.729 88.4248 253.575L88.7979 255.113L94.5777 254.746C100.053 254.399 100.337 254.435 99.9648 255.445C99.7488 256.032 99.2397 258.267 98.8335 260.412C98.4273 262.557 98.0353 264.355 97.9622 264.407C97.4483 264.777 81.6526 267.981 80.3445 267.981C79.44 267.981 78.3602 267.642 77.9438 267.227C76.8911 266.179 74.2622 256.268 71.1397 241.577L68.4959 229.141L70.3983 225.674C73.1017 220.748 76.4855 219.634 80.4265 222.374ZM418.064 225.725C419.181 226.481 419.731 227.109 419.287 227.12C418.842 227.132 417.623 226.519 416.579 225.76C414.105 223.961 415.415 223.93 418.064 225.725ZM339.19 224.903C339.19 225.267 329.035 225.462 310.078 225.462C291.121 225.462 280.966 225.267 280.966 224.903C280.966 224.539 291.121 224.343 310.078 224.343C329.035 224.343 339.19 224.539 339.19 224.903ZM402.831 225.358C402.831 225.925 399.418 227.304 398.957 226.923C398.784 226.78 399.585 226.261 400.737 225.769C401.888 225.276 402.831 225.092 402.831 225.358ZM305.708 227.955C306.622 228.71 307.37 229.843 307.37 230.472C307.37 232.112 304.984 233.854 302.736 233.854C298.676 233.854 297.114 229.846 300.353 227.741C302.664 226.238 303.681 226.279 305.708 227.955ZM293.359 227.203C295.993 228.469 296.107 232.02 293.559 233.426C290.995 234.84 287.05 233.033 287.069 230.453C287.082 228.785 287.644 228.055 289.553 227.224C291.34 226.447 291.782 226.445 293.359 227.203ZM339.19 230.497C339.19 230.853 333.887 231.057 324.634 231.057C315.381 231.057 310.078 230.853 310.078 230.497C310.078 230.142 315.381 229.938 324.634 229.938C333.887 229.938 339.19 230.142 339.19 230.497ZM306.016 231.268C306.016 231.384 305.482 231.825 304.831 232.247C303.757 232.943 303.734 232.923 304.575 232.036C305.46 231.104 306.016 230.808 306.016 231.268ZM289.624 231.952C290.105 232.383 290.199 232.735 289.834 232.735C289.131 232.735 288.113 231.671 288.515 231.356C288.645 231.253 289.144 231.522 289.624 231.952ZM69.3632 237.071C71.2968 246.905 75.8545 265.357 76.7224 266.862C77.8524 268.821 81.0981 268.92 88.5921 267.224C95.0442 265.762 95.6169 265.88 94.8187 268.505C94.2128 270.498 91.9941 270.839 77.4699 271.177C65.4425 271.458 64.341 271.399 61.3945 270.322C56.6005 268.57 56.4455 267.934 58.2146 257.256C61.2599 238.871 61.7365 237.183 64.5346 234.889C65.9049 233.766 67.0254 232.444 67.0254 231.952C67.0254 231.46 67.2854 231.057 67.6036 231.057C67.9211 231.057 68.7132 233.763 69.3632 237.071ZM414.053 235.823C411.29 237.55 406.586 237.565 403.846 235.854C402.607 235.08 403.039 235.009 408.924 235.009C414.699 235.009 415.223 235.092 414.053 235.823ZM415.694 236.736C415.694 237.059 414.658 238.179 413.392 239.225C411.734 240.596 410.485 241.127 408.924 241.127C407.363 241.127 406.114 240.596 404.456 239.225C401.559 236.832 401.416 235.748 404.151 236.917C406.665 237.991 410.31 238.008 413.346 236.96C414.813 236.453 415.694 236.369 415.694 236.736ZM424.584 243.232C424.813 245.931 424.591 246.477 421.928 249.772C420.329 251.749 417.361 254.621 415.332 256.153C409.526 260.538 405.479 260.643 400.888 256.527C396.475 252.57 394.607 248.968 394.845 244.871L395.045 241.407L396.167 243.097C398.784 247.039 404.278 250.087 408.728 250.066C413.602 250.043 419.178 246.821 423.23 241.686C424.333 240.289 424.334 240.29 424.584 243.232ZM426.29 242.038C426.718 242.183 428.797 244.167 430.911 246.448L434.753 250.593L432.534 253.273C429.563 256.861 424.245 261.473 420.369 263.824C418.629 264.879 417.066 265.743 416.896 265.743C416.726 265.743 416.213 264.363 415.756 262.676C415.299 260.988 414.589 259.437 414.179 259.227C413.678 258.972 413.599 259.198 413.937 259.917C414.214 260.506 414.765 262.31 415.161 263.925C415.558 265.54 416.136 266.862 416.446 266.862C416.757 266.862 419.381 265.283 422.277 263.353C426.803 260.337 432.34 255.19 434.518 251.974C435.077 251.148 436.054 251.447 442.763 254.499C450.263 257.91 459.948 263.037 460.639 263.961C460.833 264.221 459.501 265.374 457.677 266.523C453.724 269.014 447.488 275.574 445.448 279.387C444.643 280.89 443.844 283.659 443.672 285.541C443.501 287.422 443.287 289.716 443.196 290.639C443.047 292.159 442.427 292.568 436.641 294.973C427.168 298.909 421.366 300.021 410.278 300.027C402.286 300.032 400.377 299.843 395.078 298.523C387.831 296.717 380.178 293.51 375.04 290.125C371.413 287.736 371.241 287.5 370.071 283.271C369.403 280.862 367.957 276.522 366.856 273.627C365.475 269.996 364.916 267.487 365.055 265.536C365.251 262.773 365.35 262.653 369.318 260.356C373.592 257.882 384.766 252.703 385.659 252.782C385.947 252.808 386.543 254.289 386.984 256.074C387.424 257.859 388.669 260.941 389.749 262.925L391.713 266.53L393.804 263.48C399.228 255.564 401.156 256.8 403.171 269.485C403.685 272.725 404.225 275.473 404.369 275.593C404.513 275.712 405.636 273.608 406.865 270.916C410.913 262.046 412.651 259.351 415.994 256.763C417.761 255.394 420.701 252.429 422.528 250.172C425.511 246.487 425.805 245.848 425.424 243.878C425.19 242.673 425.114 241.707 425.255 241.731C425.396 241.755 425.861 241.894 426.29 242.038ZM394.029 246.422C394.029 249.048 395.975 252.96 398.624 255.665L399.977 257.045L398.027 258.025C396.954 258.564 395.235 260.266 394.207 261.807C393.178 263.348 392.146 264.612 391.912 264.617C391.679 264.621 390.871 263.429 390.118 261.967C385.712 253.425 386.277 248.41 392.025 245.028L394.029 243.848V246.422ZM43.1913 244.803C47.261 247.158 49.8824 255.153 50.883 268.261C51.8024 280.304 51.4971 285.978 49.8486 287.483C47.871 289.288 44.4283 290.028 42.1704 289.134C39.2788 287.988 38.4867 285.866 37.851 277.561C37.4224 271.969 36.7223 268.3 35.2213 263.785C33.9005 259.812 33.1801 256.343 33.1896 253.995C33.2188 246.599 38.2714 241.955 43.1913 244.803ZM98.9695 249.379L101.31 250.918L113.449 250.555C120.126 250.355 130.227 250.117 135.897 250.025L146.204 249.857L152.96 253.633C159.606 257.348 166.718 262.992 165.26 263.394C164.85 263.507 163.168 262.619 161.521 261.421C157.524 258.513 143.41 252.779 139.467 252.461C137.792 252.326 128.164 252.616 118.073 253.105C92.483 254.346 94.3224 254.438 93.9338 251.897C93.7206 250.502 93.9582 249.47 94.642 248.82C95.9879 247.538 96.2127 247.567 98.9695 249.379ZM149.961 256.456C158.725 260.009 162.938 262.447 162.146 263.508C161.431 264.464 160.027 264.12 159.28 262.806C158.886 262.113 156.966 260.82 155.011 259.931C153.057 259.042 151.675 258.605 151.94 258.96C152.206 259.314 153.565 260.087 154.961 260.675C158.112 262.004 159.814 263.505 158.168 263.505C157.564 263.505 157.07 263.258 157.07 262.955C157.07 262.319 150.332 259.375 149.828 259.792C149.643 259.946 151.044 260.623 152.942 261.298C154.84 261.972 156.393 262.766 156.393 263.061C156.393 263.357 156.012 263.468 155.547 263.308C154.596 262.983 150.954 262.112 146.957 261.256C145.491 260.941 142.716 259.655 140.789 258.396L137.287 256.109L118.912 260.097C108.807 262.291 100.125 264.081 99.6189 264.075C99.0068 264.068 98.824 263.643 99.0732 262.806C99.279 262.113 99.6507 260.258 99.8991 258.682C100.148 257.106 100.579 255.512 100.857 255.139C101.204 254.675 106.663 254.217 118.215 253.682C142.341 252.564 139.815 252.344 149.961 256.456ZM84.7073 254.755C83.6085 255.849 81.1617 261.944 81.9085 261.729C82.2531 261.629 83.6505 260.289 85.014 258.75C86.3776 257.212 87.3193 256.385 87.106 256.913C86.5475 258.298 81.7426 263.505 81.0229 263.505C80.6878 263.505 80.6275 262.564 80.8875 261.407C81.5185 258.607 83.949 253.995 84.7946 253.995C85.2022 253.995 85.1677 254.296 84.7073 254.755ZM140.966 259.276C143.517 260.889 145.822 261.85 147.736 262.099C151.453 262.582 155.039 263.603 155.039 264.177C155.039 264.423 151.078 264.624 146.238 264.624C138.865 264.624 137.436 264.761 137.436 265.464C137.436 266.158 136.157 266.303 129.989 266.303H122.542V270.219V274.135H127.281H132.02V279.048V283.961L123.049 282.711C118.115 282.022 110.651 281.285 106.462 281.072L98.8443 280.684L98.2093 278.668C96.0827 271.923 95.5587 269.715 95.6393 267.841C95.6887 266.688 95.7564 265.743 95.7896 265.743C95.8228 265.743 105.101 263.729 116.406 261.268C127.712 258.806 136.993 256.8 137.03 256.811C137.067 256.821 138.838 257.93 140.966 259.276ZM403.781 259.422C405.027 259.962 406.787 260.178 408.584 260.01L411.42 259.746L408.486 265.682C406.872 268.947 405.548 271.933 405.545 272.317C405.542 272.702 405.234 273.016 404.862 273.016C404.49 273.016 404.179 272.072 404.173 270.918C404.167 269.765 403.595 266.554 402.903 263.785C402.21 261.016 401.682 258.709 401.729 258.659C401.777 258.61 402.7 258.953 403.781 259.422ZM174.673 265.184C174.673 265.546 168.152 265.708 156.224 265.644C139.11 265.552 138.509 265.517 147.93 265.157C163.94 264.545 174.673 264.556 174.673 265.184ZM463.612 266.055C464.44 266.534 465.117 267.266 465.117 267.682C465.117 268.099 463.614 270.917 461.776 273.944C458.22 279.805 452.521 285.874 447.179 289.49L443.918 291.697L444.293 287.252C444.771 281.587 446.116 278.775 450.809 273.63C454.118 270.003 460.299 265.184 461.642 265.184C461.899 265.184 462.785 265.576 463.612 266.055ZM363.801 266.303C363.984 266.764 364.337 268.149 364.584 269.38C364.831 270.611 365.625 273.002 366.349 274.695C367.972 278.491 369.903 285.307 369.459 285.674C369.042 286.019 365.106 282.046 361.907 278.051C359.868 275.506 359.514 274.647 359.857 273.083C360.462 270.327 363.396 265.284 363.801 266.303ZM310.684 270.826C313.043 271.606 312.078 271.972 309.36 271.328C306.455 270.64 306.016 270.641 306.016 271.338C306.016 271.646 306.798 271.897 307.753 271.897C311.061 271.897 313.972 273.793 312.664 275.095C311.513 276.242 309.093 275.93 307.37 274.415C305.088 272.408 301.623 272.526 297.93 274.736C294.468 276.808 293.805 276.588 296.257 274.181C299.733 270.767 306.057 269.296 310.684 270.826ZM61.5354 271.14C62.798 271.594 66.1493 272.034 68.9827 272.118C74.7943 272.292 88.4343 271.677 92.1783 271.073L94.6508 270.674L95.6819 273.664C96.2486 275.308 97.0515 277.723 97.4666 279.03L98.2208 281.408H101.554C107.377 281.408 130.767 284.102 131.71 284.882C131.853 285 132.059 289.743 132.165 295.421L132.358 305.745L124.234 306.114C98.9452 307.263 71.8302 307.775 66.8372 307.199C59.6086 306.364 56.4333 304.937 54.7313 301.758C53.4781 299.417 53.4388 298.823 54.1687 293.261C55.5701 282.579 57.8828 270.592 58.5693 270.452C58.9383 270.377 60.2727 270.687 61.5354 271.14ZM250.9 313.967C250.671 335.907 250.3 361.726 250.075 371.341L249.667 388.824H247.119H244.571L244.143 337.494C243.908 309.262 243.642 283.52 243.553 280.289L243.391 274.415L247.353 274.245L251.315 274.076L250.9 313.967ZM242.635 283.786C242.857 289.093 243.119 314.769 243.215 340.842L243.391 388.248L206.324 388.396C185.936 388.477 169.256 388.414 169.256 388.254C169.256 387.726 177.226 384.332 180.962 383.271C189.695 380.788 197.905 374.61 194.082 373.398C193.587 373.241 191.835 373.36 190.189 373.662C188.544 373.964 183.016 374.389 177.905 374.605C170.258 374.93 168.55 374.861 168.262 374.219C168.07 373.79 166.095 358.286 163.873 339.765L159.832 306.091L162.852 300.752C166.21 294.814 166.435 293.752 164.624 292.398C163.146 291.292 154.899 288.741 147.084 286.972L141.498 285.708V279.922V274.135H191.864H242.23L242.635 283.786ZM140.547 309.491C140.318 328.97 139.945 354.788 139.72 366.866L139.309 388.824H136.762H134.216L133.785 341.97C133.548 316.2 133.283 290.457 133.195 284.765L133.036 274.415L137 274.245L140.964 274.076L140.547 309.491ZM333.258 278.191C334.981 279.29 337.27 285.733 337.664 290.592C337.952 294.141 337.79 295.38 336.845 296.828C335.515 298.869 330.157 301.549 327.407 301.549C325.904 301.549 325.68 301.351 325.98 300.29C328.566 291.155 330.107 284.765 329.723 284.765C329.461 284.765 328.238 288.541 327.004 293.157C324.492 302.55 324.125 302.908 320.075 299.915C317.93 298.33 317.865 298.151 317.888 293.901C317.907 290.203 318.211 289.041 319.837 286.443C324.359 279.223 329.713 275.931 333.258 278.191ZM85.3051 281.781C82.8848 282.222 79.2423 283.064 77.2106 283.652C73.3847 284.759 71.9399 284.766 74.4287 283.666C76.4984 282.75 85.8989 280.837 87.9523 280.914C88.9164 280.95 87.7255 281.34 85.3051 281.781ZM331.066 281.902C331.066 282.209 330.761 282.617 330.389 282.807C330.017 282.997 329.712 282.901 329.712 282.593C329.712 282.285 330.017 281.878 330.389 281.688C330.761 281.498 331.066 281.594 331.066 281.902ZM95.4605 281.957C95.4605 282.27 94.7747 282.528 93.9372 282.529C90.7742 282.532 79.3446 285.443 74.1714 287.563C68.1581 290.028 66.5691 290.164 71.4613 287.795C75.3887 285.893 82.1563 283.833 88.0038 282.759C90.4295 282.313 93.0998 281.822 93.9372 281.668C94.7747 281.513 95.4605 281.643 95.4605 281.957ZM299.621 283.064C301.944 283.841 307.807 289.578 310.022 293.24C312.453 297.261 312.801 301.247 310.947 303.84C309.867 305.352 308.047 306.072 308.047 304.987C308.047 304.14 300.506 291.37 300.169 291.648C299.99 291.795 301.667 295.087 303.893 298.964C306.121 302.84 307.738 306.11 307.487 306.232C305.975 306.963 302.307 307.142 300.261 306.584C295.586 305.309 292.163 297.692 292.58 289.495C292.896 283.274 294.868 281.472 299.621 283.064ZM144.037 286.838C145.93 287.139 145.926 287.17 143.529 290.919L141.562 293.996L141.53 290.22C141.513 288.143 141.727 286.477 142.006 286.519C142.286 286.561 143.2 286.705 144.037 286.838ZM153.685 289.183C161.372 291.24 165.194 292.913 165.194 294.221C165.194 295.528 157.809 307.949 148.386 322.489L141.16 333.64L140.953 322.489C140.839 316.357 140.936 309.79 141.169 307.897L141.592 304.455L145.438 302.986C149.513 301.431 148.347 301.353 144.037 302.894L141.498 303.802V299.771C141.498 296.214 141.796 295.261 144.037 291.654C145.433 289.406 146.881 287.584 147.253 287.605C147.625 287.626 150.52 288.336 153.685 289.183ZM299.246 289.274C299.246 289.599 298.941 289.711 298.569 289.52C298.196 289.33 297.892 289.064 297.892 288.928C297.892 288.792 298.196 288.681 298.569 288.681C298.941 288.681 299.246 288.948 299.246 289.274ZM352.731 294.835C354.949 296.668 354.491 299.107 351.457 301.615C347.489 304.893 343.586 304.381 340.763 300.213C340.104 299.241 339.967 299.238 337.77 300.158C336.503 300.688 334.4 301.765 333.097 302.551L330.727 303.98L332.38 302.475C333.289 301.647 335.574 300.366 337.458 299.629C339.341 298.891 341.644 297.613 342.575 296.788C346.093 293.671 350.335 292.855 352.731 294.835ZM352.287 295.299C353.666 296.558 353.704 297.775 352.427 299.815C351.266 301.669 348.61 303.227 346.609 303.227C345.823 303.227 344.238 302.449 343.089 301.499C341.405 300.108 341.184 299.673 341.955 299.27C343.26 298.587 347.111 298.622 348.713 299.33C349.591 299.719 350.023 299.723 350.023 299.341C350.023 298.69 348.16 298.276 344.268 298.062L341.56 297.912L344.539 296.094C347.879 294.055 350.618 293.774 352.287 295.299ZM132.697 307.502C132.697 308.294 132.12 308.372 128.535 308.062C126.247 307.864 123.276 307.685 121.934 307.664C117.106 307.586 121.992 306.664 127.45 306.623C131.885 306.59 132.697 306.726 132.697 307.502ZM63.9788 307.791C65.2469 308.135 74.9331 308.226 89.7532 308.033C107.524 307.802 113.698 307.891 114.295 308.385C114.76 308.769 115.094 310.717 115.094 313.043C115.094 319.339 117.467 318.892 84.1054 318.892H55.5924L54.539 317.648C52.9094 315.726 53.1024 309.697 54.8389 308.262C56.3325 307.028 60.3953 306.818 63.9788 307.791ZM293.591 308.233C294.391 308.514 295.246 309.012 295.493 309.342C295.739 309.671 296.913 309.958 298.101 309.98C299.289 310.002 300.871 310.238 301.615 310.504C302.493 310.818 301.829 310.875 299.727 310.666C296.87 310.38 296.145 310.542 293.634 312.026C286.533 316.219 280.309 317.709 277.967 315.775C276.592 314.639 276.625 314.3 278.274 312.568C281.061 309.64 290.215 307.049 293.591 308.233ZM159.381 308.895C159.571 309.624 161.444 324.696 163.543 342.389C165.953 362.701 167.647 374.719 168.139 374.993C168.567 375.232 171.742 375.372 175.193 375.303C180.286 375.202 181.681 375.354 182.596 376.111C183.649 376.981 183.479 377.135 180.045 378.426C176.802 379.645 163.232 382.354 162.675 381.894C162.559 381.797 161.429 378.723 160.164 375.062C158.9 371.4 154.771 360.222 150.99 350.222C147.209 340.221 144.093 331.662 144.066 331.2C144.028 330.552 157.778 308.702 158.807 307.777C158.932 307.664 159.19 308.167 159.381 308.895ZM119.495 308.03C120.24 308.126 123.514 308.366 126.773 308.563L132.697 308.922V311.087C132.697 314.177 120.954 342.514 115.088 353.578C110.652 361.945 109.794 363.15 105.925 366.446C103.577 368.446 101.557 370.632 101.436 371.304C101.227 372.46 100.856 372.357 94.6143 369.424L88.0132 366.323V345.965V325.605H92.7524H97.4916V322.528V319.451H105.511C115.665 319.451 115.771 319.38 115.771 312.554C115.771 307.345 115.619 307.53 119.495 308.03ZM292.257 308.699C293.068 308.803 294.134 309.298 294.626 309.799C295.407 310.593 295.355 310.658 294.22 310.305C292.156 309.665 285.849 311.005 283.82 312.515L281.981 313.883L285.298 312.472C288.937 310.922 293.907 310.473 292.56 311.814C290.955 313.412 283.237 316.181 280.902 315.996C276.65 315.66 277.836 312.677 283.106 310.455C286.017 309.227 290.174 308.429 292.257 308.699ZM132.843 330.78L133.076 344.907L126.095 356.512L119.114 368.117L121.199 372.256C122.346 374.533 124.336 377.618 125.621 379.112C128.38 382.318 128.457 382.67 126.402 382.67C125.304 382.67 122.218 380.477 115.908 375.211C110.992 371.108 106.97 367.535 106.97 367.269C106.97 367.004 107.714 366.144 108.623 365.358C111.334 363.014 121.27 343.595 126.888 329.661C129.773 322.507 132.24 316.654 132.372 316.654C132.503 316.654 132.715 323.011 132.843 330.78ZM347.764 318.57C353.77 320.88 355.758 323.429 352.383 324.489C350.166 325.186 344.837 323.549 340.257 320.766C337.14 318.871 337.005 318.69 338.186 317.977C340.083 316.831 343.851 317.064 347.764 318.57ZM342.575 319.131C346.082 319.935 349.733 321.408 350.387 322.283C350.634 322.613 349.308 322.244 347.439 321.461C345.571 320.679 342.791 319.874 341.262 319.672C339.734 319.47 338.32 319.085 338.12 318.819C337.648 318.188 338.821 318.27 342.575 319.131ZM324.561 319.635C328.482 320.613 328.987 321.688 326.806 324.411C325.466 326.085 324.395 326.763 322.672 327.03C318.398 327.693 309.782 324.827 307.772 322.074C306.543 320.391 309.428 318.892 313.894 318.892C317.18 318.892 317.626 319.036 318.202 320.291C318.557 321.06 319.011 321.689 319.214 321.689C319.416 321.689 319.391 321.06 319.158 320.291C318.792 319.088 318.957 318.898 320.33 318.935C321.208 318.958 323.112 319.273 324.561 319.635ZM306.285 325.313C309.193 326.169 311.047 327.43 310.664 328.291C310.524 328.607 308.367 328.16 305.677 327.256C303.071 326.381 300.329 325.668 299.584 325.673L298.23 325.681L299.584 326.161C300.329 326.425 303.147 327.329 305.847 328.169C308.547 329.01 310.755 329.86 310.755 330.058C310.755 330.941 308.952 331.759 307.005 331.759C305.718 331.759 303.935 331.152 302.487 330.221C299.718 328.441 297.12 325.626 297.624 324.95C298.162 324.232 303.351 324.448 306.285 325.313ZM313.983 326.632C314.496 326.901 315.013 328.924 315.268 331.659C315.672 335.984 315.62 336.235 314.337 336.235C313.172 336.235 312.918 335.746 312.544 332.796C311.739 326.429 311.941 325.561 313.983 326.632ZM318.548 327.852C318.782 328.165 319.257 328.276 319.603 328.099C319.95 327.922 320.234 328.071 320.234 328.43C320.234 328.788 319.777 328.937 319.218 328.76C318.371 328.491 318.202 329.136 318.202 332.649C318.202 335.314 317.954 336.734 317.525 336.515C316.666 336.076 316.628 327.284 317.485 327.284C317.836 327.284 318.314 327.539 318.548 327.852ZM337.004 329.896C338.293 330.324 339.867 333.159 339.867 335.048C339.867 338.244 334.619 340.131 331.213 338.159C329.854 337.373 327.681 334.619 327.681 333.685C327.681 333.048 331.238 334.022 333.264 335.215C334.332 335.843 335.375 336.217 335.582 336.047C336.048 335.661 331.948 333.532 329.881 333.086C327.78 332.633 327.973 331.937 330.558 330.634C332.666 329.573 335.169 329.286 337.004 329.896ZM145.06 336.545C145.976 338.99 149.538 348.543 152.978 357.774C156.418 367.005 160.337 377.453 161.688 380.992C163.038 384.53 164.235 387.677 164.348 387.985C164.481 388.348 160.226 388.486 152.242 388.38L139.93 388.214L140.375 376.071C140.618 369.393 140.825 357.383 140.835 349.382C140.85 336.017 140.955 334.725 142.124 333.468L143.397 332.1L145.06 336.545ZM316.408 338.882L317.515 340.991L317.181 339.099L316.847 337.207L319.328 337.54C322.898 338.019 323.481 338.727 321.823 340.569C319.529 343.119 313.409 342.802 310.184 339.965C308.398 338.394 309.05 337.703 312.859 337.137C315.186 336.791 315.353 336.873 316.408 338.882ZM322.265 343.442C322.265 344.365 321.96 345.276 321.588 345.466C321.194 345.668 320.911 345.11 320.911 344.134C320.911 343.21 321.215 342.3 321.588 342.109C321.982 341.908 322.265 342.466 322.265 343.442ZM314.987 342.775C316.673 343.139 316.529 345.186 314.817 345.186C313.824 345.186 313.463 344.813 313.463 343.788C313.463 343.019 313.54 342.418 313.632 342.454C313.725 342.49 314.335 342.634 314.987 342.775ZM318.202 344.035C318.202 344.668 317.898 345.186 317.525 345.186C317.153 345.186 316.848 344.824 316.848 344.38C316.848 343.937 317.153 343.419 317.525 343.228C317.898 343.038 318.202 343.401 318.202 344.035ZM319.503 344.394C319.471 345.046 319.31 345.178 319.094 344.732C318.898 344.328 318.923 343.845 319.148 343.66C319.372 343.474 319.532 343.804 319.503 344.394ZM332.158 346.326C336.039 347.914 340.544 351.221 340.544 352.484C340.544 354.23 338.093 354.853 332.312 354.577C329.392 354.437 326.817 354.17 326.591 353.983C326.257 353.707 327.082 352.48 329.43 349.761C329.516 349.661 331.487 350.359 333.81 351.311C336.133 352.264 338.169 352.93 338.336 352.792C338.651 352.532 335.936 351.238 331.574 349.569C330.177 349.035 329.035 348.321 329.035 347.983C329.035 347.644 327.969 346.999 326.665 346.549C325.362 346.099 324.296 345.608 324.296 345.459C324.296 344.725 329.702 345.322 332.158 346.326ZM322.741 346.333C328.925 347.343 329.805 348.874 326.078 352.14C324.065 353.903 323.409 354.137 320.492 354.132C314.89 354.123 306.545 350.007 307.585 347.767C308.029 346.812 312.09 345.754 315.325 345.749C316.536 345.748 317.534 345.809 317.544 345.886C317.555 345.963 318.17 347.41 318.911 349.103C320.173 351.985 320.317 350.962 319.177 347.21C318.933 346.404 318.994 345.773 319.314 345.807C319.634 345.841 321.176 346.078 322.741 346.333ZM133.374 366.56V385.135L130.583 382.924C127.246 380.279 124.152 376.378 121.622 371.627L119.764 368.135L125.961 358.06C129.369 352.518 132.431 347.984 132.765 347.984C133.113 347.984 133.374 355.947 133.374 366.56ZM306.914 349.333C307.168 349.879 306.158 350.498 303.629 351.347C301.619 352.02 299.62 352.926 299.185 353.359C298.75 353.792 300.456 353.35 302.975 352.375C306.398 351.051 307.832 350.747 308.648 351.172C311.709 352.765 309.07 354.571 302.911 355.099C295.884 355.702 295.035 353.372 301.119 350.184C304.553 348.384 306.352 348.12 306.914 349.333ZM316.171 357.215C316.171 358.907 315.867 360.292 315.494 360.292C315.122 360.292 314.814 359.851 314.81 359.313C314.806 358.775 314.614 357.39 314.383 356.236C314.041 354.527 314.168 354.138 315.067 354.138C315.954 354.138 316.171 354.743 316.171 357.215ZM322.265 357.495C322.265 359.033 321.96 360.292 321.588 360.292C321.215 360.292 320.911 359.033 320.911 357.495C320.911 355.956 321.215 354.697 321.588 354.697C321.96 354.697 322.265 355.956 322.265 357.495ZM320.132 357.652L320.03 360.572L319.58 358.054L319.131 355.536L318.785 358.054L318.439 360.572L318.321 357.974C318.236 356.114 318.491 355.285 319.218 355.054C320.048 354.791 320.215 355.266 320.132 357.652ZM115.433 375.787C124.751 383.683 124.947 383.81 127.043 383.3C128.951 382.835 129.396 382.969 131.275 384.57C132.43 385.555 133.374 386.821 133.374 387.386C133.374 388.313 132.888 388.386 128.328 388.145C125.531 387.996 122.992 388.116 122.632 388.414C121.867 389.046 120.318 388.415 120.86 387.691C121.064 387.418 121.754 387.332 122.394 387.5C123.797 387.867 122.882 387.167 111.759 379.363C107.192 376.159 103.124 372.937 102.72 372.202C102.082 371.045 102.248 370.66 103.969 369.311L105.954 367.755L115.433 375.787ZM194.017 374.344C194.702 375.259 193.237 376.618 188.999 379C186.519 380.393 182.779 382.016 180.689 382.605C178.599 383.194 174.57 384.728 171.737 386.013C168.903 387.298 166.267 388.187 165.879 387.989C165.182 387.633 163.163 384.074 163.163 383.201C163.163 382.953 164.915 382.469 167.056 382.126C172.798 381.207 181.555 378.925 183.337 377.884C184.585 377.155 184.733 376.816 184.087 376.173C183.644 375.731 183.401 375.294 183.546 375.201C184.214 374.776 193.756 373.995 194.017 374.344ZM101.892 378.84C109.34 381.007 115.553 382.875 115.699 382.991C115.844 383.107 115.592 383.574 115.136 384.027C114.681 384.481 114.406 385.626 114.526 386.574L114.745 388.295L101.183 388.42L87.6199 388.545L87.5691 386.586C87.5406 385.51 87.429 384.251 87.3206 383.789C86.9239 382.105 87.3504 374.839 87.844 374.869C88.1236 374.887 94.445 376.673 101.892 378.84ZM81.373 378.614C81.4447 380.691 81.4285 383.02 81.3371 383.789C81.2457 384.558 81.1604 385.943 81.1475 386.866L81.1238 388.545L67.1412 388.416L53.1579 388.288L53.3759 386.57C53.4957 385.625 53.2316 384.491 52.7888 384.05C52.1355 383.399 52.3088 383.146 53.7076 382.707C56.7576 381.748 80.7094 374.838 80.9809 374.838C81.1252 374.838 81.3012 376.537 81.373 378.614ZM117.578 384.5C117.888 384.924 118.674 385.434 119.326 385.632C119.977 385.83 120.511 386.369 120.511 386.829C120.511 388.03 118.414 388.777 116.618 388.217C114.863 387.669 114.534 385.43 116.055 384.386C116.802 383.874 117.142 383.899 117.578 384.5ZM52.3563 384.722C53.3075 385.507 52.7509 387.691 51.4538 388.265C49.6935 389.044 47.3916 388.081 47.3916 386.567C47.3916 385.767 47.8533 385.468 49.0842 385.468C50.0151 385.468 50.7767 385.216 50.7767 384.908C50.7767 384.271 51.6826 384.165 52.3563 384.722ZM87.2164 386.38C87.0959 386.881 86.3342 387.655 85.5238 388.099C84.1961 388.827 83.9084 388.789 82.6221 387.726C80.7393 386.17 81.3919 385.468 84.7175 385.468C86.8684 385.468 87.3897 385.658 87.2164 386.38ZM482.043 388.964C482.043 389.195 471.38 389.384 458.347 389.384C445.314 389.384 434.651 389.195 434.651 388.964C434.651 388.733 445.314 388.545 458.347 388.545C471.38 388.545 482.043 388.733 482.043 388.964Z" fill="#545454"/>
</svg>
