<svg width="501" height="414" viewBox="0 0 501 414" fill="none" xmlns="http://www.w3.org/2000/svg">
<path fill-rule="evenodd" clip-rule="evenodd" d="M376.101 91.3637C344.144 42.2745 286.575 3.78743 224.799 0.486993C101.511 -6.09984 18.4173 54.9878 4.89618 131.693C-7.00674 199.217 -8.43893 288.974 136.652 331.397C170.619 370.965 236.964 390.704 302.485 390.704C396.168 390.704 501 318.371 501 237.401C501 170.697 447.374 110.505 376.101 91.3637Z" fill="#F7F7F7"/>
<path fill-rule="evenodd" clip-rule="evenodd" d="M405.165 26.9955C406.615 27.5355 409.22 29.7169 411.28 32.1131L414.868 36.2898V127.537V218.784L412.185 221.082L409.503 223.381H269.542H129.581L127.89 226.363L126.198 229.346L128.795 234.643C130.224 237.557 133.083 243.803 135.15 248.521L138.907 257.102L137.439 259.675C135.79 262.568 131.693 264.601 126.469 265.119C123.544 265.408 122.75 265.094 117.001 261.374C113.55 259.141 109.865 256.523 108.814 255.556C106.324 253.269 105.77 253.339 105.184 256.016C104.844 257.57 105.55 260.641 107.547 266.284C111.901 278.591 113.516 285.699 114.309 296.046C114.707 301.251 115.251 306.66 115.518 308.068C115.821 309.668 115.642 310.998 115.039 311.62C114.306 312.376 114.214 316.012 114.651 326.781L115.227 340.947L109.293 342.443L103.357 343.94L102.822 350.411C102.528 353.97 101.789 360.532 101.18 364.993C98.82 382.284 98.3663 387.388 98.6243 393.719C98.7979 397.985 99.2704 400.667 99.9742 401.393C100.932 402.38 103.515 402.509 122.262 402.509C135.622 402.509 143.468 402.755 143.468 403.173C143.468 403.585 136.058 403.906 123.941 404.018C105.153 404.192 104.547 404.239 107.909 405.253C112.332 406.587 113.722 408.271 111.543 409.658C106.828 412.657 87.5892 415.196 83.564 413.35C81.96 412.614 81.8258 412.197 82.2898 409.377C82.5746 407.645 82.9896 405.694 83.2105 405.044C83.5813 403.954 82.6748 403.861 71.7257 403.861H59.8385V407.578C59.8385 412.362 58.1588 414 53.2547 414C48.5549 414 47.2152 412.601 47.2152 407.694V403.861H23.9411C8.95096 403.861 0.666931 403.62 0.666931 403.185C0.666931 402.749 9.04642 402.509 24.2283 402.509H47.7896L48.244 399.636C48.4941 398.056 48.3766 385.965 47.9829 372.767C47.5892 359.569 47.2523 347.706 47.2342 346.404C47.201 344.053 47.1655 344.03 41.2634 342.494L35.3257 340.949L35.4125 326.299C35.4906 313.141 35.3604 311.562 34.1344 310.794C32.9241 310.035 32.8294 309.078 33.2902 302.317C33.9608 292.495 35.6878 285.427 41.1797 270.033C43.6318 263.162 45.6373 257.155 45.6373 256.683C45.6373 256.212 44.805 255.827 43.7873 255.827C37.8922 255.827 34.6843 244.758 34.6188 224.192C34.5865 214.244 35.0566 213.229 41.4772 209.37C45.0243 207.238 46.6677 205.654 48.4547 202.645C50.3071 199.526 51.3218 198.574 53.3431 198.061C55.7447 197.452 55.8937 197.231 55.8937 194.267V191.121L50.6882 188.925C47.8243 187.717 43.919 185.446 42.0097 183.878C38.5501 181.038 38.5367 181.01 38.5715 176.348C38.5904 173.776 38.8996 170.367 39.2586 168.775C39.8188 166.295 39.7005 165.782 38.4358 165.202C37.1829 164.628 36.9588 164.771 36.9588 166.148C36.9588 168.414 34.2275 171.145 31.4354 171.67C28.0184 172.313 27.9553 172.987 31.1166 175.053C41.9261 182.117 37.2105 192.287 23.1253 192.287C14.947 192.287 12.9296 189.876 13.4409 180.716L13.7723 174.784L9.93478 173.995C2.66379 172.5 -0.753998 168.232 0.139893 161.762C0.729248 157.5 2.68192 154.73 6.06729 153.354C9.72885 151.865 13.8882 152.432 20.2401 155.287L25.373 157.593L27.8125 153.51C30.7545 148.586 33.5332 146.623 36.6212 147.288C39.7778 147.966 43.7849 151.724 44.8018 154.96L45.6854 157.772L52.5644 155.657C56.3482 154.493 60.4476 152.829 61.6744 151.959C66.2717 148.698 70.4681 149.203 72.7316 153.29C74.2109 155.96 74.4049 158.93 73.2681 161.492C72.6156 162.962 72.8389 163.561 74.7119 165.357C75.93 166.525 78.4965 168.01 80.4145 168.657C83.6791 169.759 83.885 169.979 83.6389 172.104C83.4945 173.353 83.4148 177.766 83.4622 181.912C83.56 190.377 83.1221 191.231 78.2874 192.008C75.9134 192.389 75.5545 192.677 75.9355 193.893C76.1825 194.683 76.39 195.798 76.3955 196.372C76.4018 196.958 77.519 197.698 78.9454 198.061C80.8247 198.54 82.3111 199.805 84.6653 202.931C87.5766 206.795 90.6133 208.73 91.9576 207.578C92.2259 207.348 91.5063 205.296 90.3584 203.017C89.2113 200.738 88.4633 198.608 88.6976 198.284C89.8424 196.697 91.6697 198.001 93.5616 201.76C95.2578 205.127 95.8685 205.754 97.1205 205.413C98.0973 205.147 99.3052 205.545 100.537 206.536L102.442 208.07L102.444 120.584C102.444 38.6489 102.532 32.9493 103.824 30.7335C104.613 29.3802 106.385 27.862 107.965 27.1861C110.564 26.0728 119.27 26.0052 256.683 26.0295C379.616 26.0505 403.038 26.2032 405.165 26.9955ZM407.039 29.3295L409.345 31.3053V122.325V213.345L407.039 215.321L404.733 217.297H352.476H300.219L300.739 204.007C301.025 196.698 301.259 185.277 301.259 178.627V166.537L306.802 170.624C311.452 174.054 312.821 174.712 315.304 174.712C320.156 174.712 321.56 173.372 322.215 168.121C322.529 165.612 323.314 162.866 323.96 162.02C325.019 160.634 324.995 160.35 323.722 159.145C322.548 158.033 322.464 157.518 323.224 156.089C324.731 153.256 324.352 150.105 322.324 148.594C320.713 147.394 320.402 146.231 319.539 138.164C317.507 119.197 316.222 112.304 314.397 110.6C312.477 108.807 300.739 103.868 289.167 99.9858L281.415 97.384L281.966 89.2381C282.27 84.7578 282.673 80.8637 282.862 80.5852C283.051 80.3067 284.06 80.0782 285.104 80.0782C287.655 80.0782 288.635 78.2619 288.636 73.5323C288.636 71.3699 289.173 67.3966 289.829 64.7029C292.654 53.1015 287.592 48.2968 270.404 46.2642C266.762 45.833 261.785 45.6721 259.341 45.9053C254.902 46.3291 254.899 46.3278 253.254 43.9389C251.111 40.8282 248.806 40.7714 247.127 43.7882C246.088 45.6545 245.524 45.9824 243.741 45.7586C238.198 45.061 238.903 50.1841 245.416 57.9285C246.216 58.8803 246.126 59.8901 244.935 63.3361C243.046 68.8026 242.54 76.5355 243.591 83.898C244.498 90.254 245.575 91.9034 249.27 92.5989C250.552 92.8402 251.554 93.4736 251.554 94.0428C251.554 94.8133 250.997 94.9519 249.234 94.62C247.958 94.3801 246.182 94.5186 245.289 94.9283C243.499 95.7489 243.099 98.0208 244.651 98.5575C245.264 98.769 245.138 98.9184 244.317 98.9515C243.591 98.9806 241.946 98.2472 240.66 97.3205C238.703 95.9091 238.176 95.7894 237.41 96.5803C236.907 97.1001 236.719 98.2824 236.991 99.2138C237.454 100.792 237.184 100.977 232.883 102.016C230.351 102.628 224.786 104.044 220.515 105.162L212.751 107.194L210.14 112.056C207.885 116.254 199.503 135.071 196.231 143.28C195.545 145.002 193.316 147.503 190.094 150.167C185.277 154.151 185.002 154.551 184.369 158.513C183.574 163.499 184.613 165.488 189.404 168.15C193.707 170.541 211.602 191.182 211.793 193.977C211.87 195.092 212.35 197.329 212.861 198.947C213.644 201.431 214.27 202.062 216.885 203.003L219.98 204.116L219.988 210.707L219.996 217.297H176.588H133.179L134.739 214.677C136.498 211.724 136.257 211.213 133.108 211.213C131.738 211.213 130.592 210.721 130.09 209.916C129.644 209.203 128.291 208.433 127.083 208.206C125.875 207.979 124.541 207.118 124.118 206.293C123.096 204.297 119.528 203.931 118.1 205.674C117.027 206.985 113.355 207.811 107.57 208.045L104.414 208.172L104.209 120.636C104.057 55.9426 104.24 32.6072 104.91 31.2134C106.904 27.0597 95.321 27.3537 256.919 27.3537H404.733L407.039 29.3295ZM252.293 45.0198L253.797 47.1382L261.198 47.0105C273.663 46.7949 284.346 49.4351 287.494 53.5078C289.085 55.5667 289.483 60.8919 288.384 65.41C287.879 67.4865 287.483 67.9036 286.315 67.5859C285.408 67.3392 283.961 67.8475 282.428 68.9533C280.81 70.12 279.468 70.5729 278.448 70.2958C277.005 69.9031 276.982 69.7314 278.081 67.4784C279.118 65.3532 279.116 64.9023 278.066 63.5295C277.415 62.6778 275.604 61.3042 274.044 60.4775C272.482 59.6508 271.322 58.7795 271.464 58.5423C274.127 54.1006 274.115 54.3304 271.797 52.6223C269.879 51.2082 268.825 51.0128 263.147 51.0162C254.692 51.0209 250.888 51.9382 248.246 54.6096C246.16 56.7192 246.1 56.7334 244.915 55.4058C241.567 51.6556 240.44 45.5646 243.277 46.5481C243.924 46.7725 244.915 47.118 245.479 47.3147C246.101 47.5323 247.029 46.7327 247.834 45.2868C249.468 42.3498 250.359 42.2964 252.293 45.0198ZM168.147 44.7494C170.007 46.344 170.52 46.4839 171.866 45.7633C172.724 45.3044 175.001 44.9285 176.927 44.9285C185.494 44.9285 189.114 53.2401 182.875 58.5862L180.548 60.5796V69.5178C180.548 75.5682 180.242 78.7182 179.602 79.2671C178.91 79.8599 172.628 80.0782 156.267 80.0782H133.879L131.573 78.1024L129.266 76.1266V63.7045C129.266 54.9442 129.546 51.0432 130.213 50.4714C130.893 49.8887 136.142 49.6602 148.848 49.6602H166.534L164.399 47.2613C160.779 43.1947 163.894 41.1067 168.147 44.7494ZM87.4519 44.9285C89.6626 46.8226 89.5687 50.612 87.2759 51.9875C81.4724 55.4707 74.6914 49.1668 79.8101 45.0462C82.0926 43.2096 85.3864 43.1589 87.4519 44.9285ZM70.5249 45.2361C72.6677 47.0713 72.913 48.3387 71.5544 50.5498C70.3253 52.5506 69.3533 53.0177 66.3924 53.0299C61.8716 53.0481 59.6634 47.7824 62.9943 44.9285C65.1269 43.1014 68.1793 43.2265 70.5249 45.2361ZM170.449 48.768L175.719 53.2833L176.683 51.4718C177.213 50.4754 178.129 49.6602 178.719 49.6602C179.534 49.6602 179.405 50.3105 178.182 52.364C177.296 53.8512 176.321 55.0679 176.014 55.0679C175.251 55.0679 163.98 45.4294 163.98 44.7765C163.98 43.5793 165.454 44.4892 170.449 48.768ZM86.5052 45.7397C87.0258 46.1858 87.4519 47.3417 87.4519 48.3083C87.4519 50.5424 86.1146 51.6881 83.5071 51.6881C80.8996 51.6881 79.5623 50.5424 79.5623 48.3083C79.5623 46.0743 80.8996 44.9285 83.5071 44.9285C84.6353 44.9285 85.9844 45.2936 86.5052 45.7397ZM69.6444 45.9905C72.1139 48.1069 70.4957 51.6881 67.0692 51.6881C64.3379 51.6881 62.9943 50.5734 62.9943 48.3083C62.9943 47.3417 63.4204 46.1858 63.9411 45.7397C65.2689 44.6021 68.173 44.7298 69.6444 45.9905ZM167.136 52.0477C167.136 52.9893 167.651 54.8144 168.279 56.1034L169.423 58.4476H149.739H130.055V55.0915C130.055 52.4654 130.388 51.5833 131.581 51.0358C132.498 50.6154 139.902 50.3362 150.122 50.3362H167.136V52.0477ZM386.237 52.364C386.464 53.1076 387.141 53.716 387.741 53.716C388.631 53.716 388.832 56.0243 388.832 66.2211V78.7263H363.586C341.67 78.7263 338.339 78.5925 338.339 77.7124C338.339 77.1547 337.807 76.6984 337.156 76.6984C336.145 76.6984 335.972 74.8206 335.972 63.8553V51.0121H360.899C385.161 51.0121 385.835 51.048 386.237 52.364ZM266.939 52.3302C272.33 53.0468 273.459 54.4548 270.489 56.7578C269.621 57.4303 268.911 58.2286 268.911 58.5315C268.911 58.8343 270.864 60.1524 273.251 61.4604C277.919 64.0189 278.283 64.8023 276.314 68.0645C275.119 70.0443 275.128 70.2356 276.465 71.0731C277.249 71.5645 278.167 71.9667 278.505 71.9667C278.842 71.9667 278.897 72.4987 278.627 73.1497C278.356 73.8006 279.555 73.0402 281.292 71.4598C283.027 69.8794 284.844 68.587 285.328 68.587C286.572 68.587 288.039 73.733 287.449 76.0326C286.729 78.8419 285.113 79.7842 282.657 78.8257C280.014 77.7935 279.568 77.8482 280.743 79.0609C281.455 79.7963 281.574 81.6843 281.181 85.9894C279.863 100.412 278.242 111.467 277.19 113.209C275.046 116.762 267.288 119.423 262.242 118.338L260.233 117.906V108.761C260.233 99.7404 260.204 99.5937 258.145 97.9586C256.511 96.6607 256.347 96.3011 257.388 96.3011C259.549 96.3011 264.354 93.8839 267.552 91.1882C269.191 89.8066 270.421 88.581 270.284 88.4648C270.148 88.3485 268.098 89.0758 265.727 90.0803C262.126 91.6066 260.407 91.902 255.281 91.8743C249.777 91.8452 248.939 91.6634 247.125 90.1101C245.239 88.4938 245.075 87.8287 244.661 80.1343L244.218 71.8904L246.505 72.2912C248.541 72.6474 248.634 72.5961 247.344 71.8221C246.547 71.3442 245.328 70.6115 244.634 70.1951C243.553 69.5441 243.842 69.1838 246.676 67.6514C248.491 66.67 249.98 65.4897 249.985 65.0294C249.99 64.5698 250.205 63.0969 250.464 61.7564C250.874 59.6333 250.708 59.2683 249.172 58.9242L247.408 58.5294L248.93 56.2913C251.126 53.0623 259.158 51.2954 266.939 52.3302ZM384.888 63.8553V75.3465H360.825H336.761V63.8553V52.364H360.825H384.888V63.8553ZM143.974 54.0614C145.064 56.4928 143.932 57.431 139.76 57.554C135.139 57.6899 133.069 56.484 134.525 54.5041C135.607 53.0319 143.351 52.6689 143.974 54.0614ZM142.481 54.1945C143.857 54.6271 143.714 56.194 142.254 56.6739C141.551 56.9051 140.844 56.632 140.571 56.025C140.016 54.784 141.087 53.7565 142.481 54.1945ZM138.469 54.7752C139.127 56.2434 137.457 57.6243 136.262 56.6003C135.252 55.735 135.878 53.716 137.156 53.716C137.618 53.716 138.208 54.1925 138.469 54.7752ZM379.957 56.3819C381.548 57.5189 381.732 58.2591 381.732 63.5301C381.732 68.7019 381.518 69.6036 379.957 71.015C378.196 72.6069 378.047 72.6197 361.057 72.6312L343.934 72.6427L341.925 70.9224C340.106 69.363 339.917 68.6897 339.917 63.7505C339.917 59.0242 340.153 58.0874 341.692 56.6956C343.457 55.101 343.574 55.0915 360.825 55.1023C376.635 55.1118 378.339 55.226 379.957 56.3819ZM379.168 57.3715C380.658 58.7187 380.943 59.7286 380.943 63.664C380.943 67.6893 380.685 68.5586 379.117 69.8213C377.362 71.234 376.649 71.2908 360.699 71.2908C340.788 71.2908 341.495 71.5727 341.495 63.6329C341.495 55.5661 341.06 55.7411 361.022 55.7553C377.219 55.7668 377.412 55.7844 379.168 57.3715ZM87.7241 58.3321C89.5931 60.101 89.3824 63.5207 87.3028 65.1808C82.2314 69.2291 74.663 62.6453 79.5623 58.4476C81.5774 56.7213 85.9576 56.6597 87.7241 58.3321ZM70.8531 58.5754C73.0038 60.5526 72.8831 62.8799 70.5249 64.8996C65.4693 69.2318 58.5044 63.6626 62.6448 58.5984C64.3072 56.5644 68.6535 56.5523 70.8531 58.5754ZM365.02 59.4616C366.901 60.8175 367.531 61.8274 367.531 63.4862C367.531 66.6909 364.9 69.2629 361.621 69.2629C357.895 69.2629 356.593 68.6985 355.273 66.5104C353.666 63.8478 353.828 62.185 355.894 60.1747C358.612 57.5283 361.974 57.2654 365.02 59.4616ZM260.963 58.4105C262.016 58.6376 263.038 59.2372 263.236 59.7435C263.473 60.3552 263.251 60.4829 262.574 60.124C262.013 59.8266 260.458 59.3906 259.118 59.1554C257.585 58.885 257.121 58.5916 257.866 58.3625C258.517 58.1624 259.911 58.184 260.963 58.4105ZM86.5052 59.2588C87.0258 59.7049 87.4519 60.8608 87.4519 61.8274C87.4519 64.0615 86.1146 65.2072 83.5071 65.2072C80.8996 65.2072 79.5623 64.0615 79.5623 61.8274C79.5623 59.5934 80.8996 58.4476 83.5071 58.4476C84.6353 58.4476 85.9844 58.8127 86.5052 59.2588ZM69.9371 59.2588C70.4578 59.7049 70.8839 60.8608 70.8839 61.8274C70.8839 64.0952 69.5403 65.2072 66.7994 65.2072C65.3328 65.2072 64.1809 64.6482 63.3162 63.5173C62.1194 61.9518 62.1194 61.703 63.3162 60.1375C64.7245 58.2962 68.2653 57.8264 69.9371 59.2588ZM364.767 60.4735C367.905 63.4436 365.349 68.587 360.737 68.587C356.171 68.587 353.752 62.3952 357.45 60.1761C359.863 58.7275 363.06 58.8579 364.767 60.4735ZM361.869 60.6269C363.126 61.7037 363.036 62.8441 361.614 63.8553C360.963 64.3183 360.43 65.1531 360.43 65.7108C360.43 66.5354 360.651 66.5672 361.614 65.8832C362.577 65.1984 362.797 65.2322 362.797 66.0663C362.797 67.1891 360.71 68.1395 359.57 67.5352C358.452 66.9437 358.725 64.7868 360.036 63.8553C360.686 63.3923 361.219 62.7562 361.219 62.4419C361.219 62.1275 360.686 62.0451 360.036 62.2587C358.573 62.74 358.477 61.5834 359.897 60.5742C360.659 60.0321 361.191 60.0463 361.869 60.6269ZM249.188 61.6922C249.188 63.0732 248.734 63.7992 247.731 64.0243C246.48 64.3041 246.343 64.0601 246.765 62.2945C247.427 59.5184 249.188 59.0803 249.188 61.6922ZM259.928 64.1507C260.55 65.5384 259.674 67.4372 258.66 66.8998C258.223 66.6686 257.866 65.9068 257.866 65.2072C257.866 63.5416 259.322 62.7961 259.928 64.1507ZM176.604 70.8176C176.604 73.2288 176.193 75.4283 175.657 75.8873C174.307 77.0438 132.352 77.0438 131.002 75.8873C130.466 75.4283 130.055 73.2288 130.055 70.8176V66.5591H153.33H176.604V70.8176ZM85.0851 70.4249C89.1158 71.672 90.4207 76.086 87.4417 78.3964C83.9442 81.1077 77.9845 78.973 77.9845 75.0085C77.9845 72.1418 82.0823 69.4961 85.0851 70.4249ZM69.2925 70.8082C73.7288 72.7312 73.0701 78.2214 68.2377 79.5969C62.8665 81.1259 58.9549 74.3995 63.4527 71.3685C65.9048 69.7158 66.6164 69.6475 69.2925 70.8082ZM69.5781 72.5271C72.2069 75.0153 70.3837 78.7263 66.5328 78.7263C64.6732 78.7263 62.2054 76.5206 62.2054 74.8578C62.2054 73.5701 65.1521 71.2908 66.8168 71.2908C67.6176 71.2908 68.8602 71.8471 69.5781 72.5271ZM264.375 72.6968C265.134 73.076 265.756 73.6931 265.756 74.0683C265.756 74.4434 265.396 74.5597 264.956 74.3272C264.517 74.0947 262.678 74.9889 260.87 76.3152C257.509 78.7797 256.024 79.0649 250.568 78.2923C246.025 77.6488 247.059 76.8782 251.752 77.4109C254.131 77.6806 256.565 77.5927 257.472 77.2047C260.207 76.034 262.502 73.8871 262.064 72.909C261.57 71.8072 262.433 71.7281 264.375 72.6968ZM326.008 88.0977C328.074 89.9458 328.359 90.0141 330.321 89.1373C331.477 88.6209 333.789 88.1964 335.46 88.1937C337.866 88.1903 339.055 88.6676 341.18 90.4879C342.655 91.7519 343.862 93.2728 343.862 93.8677C343.862 94.8336 346.227 94.9492 365.921 94.9492H387.98L389.984 96.8013L391.988 98.6534V113.721C391.988 126.739 392.156 128.844 393.217 129.193C393.893 129.415 394.259 130.014 394.031 130.524C393.766 131.116 394.178 131.451 395.169 131.451C397.202 131.451 397.133 132.238 394.947 133.992C391.582 136.692 389.644 136.858 361.537 136.858C331.209 136.858 330.906 136.82 326.62 132.38L324.092 129.761L327.074 129.423L330.055 129.085L330.27 116.057C330.455 104.772 330.32 102.976 329.255 102.625C327.415 102.02 325.716 98.7352 325.716 95.7854C325.716 93.7589 325.179 92.7334 323.318 91.2058C320.8 89.1394 320.431 86.6681 322.586 86.3166C323.251 86.2078 324.791 87.0094 326.008 88.0977ZM328.066 91.8925C330.87 94.3172 333.382 96.3011 333.647 96.3011C333.912 96.3011 334.603 95.5407 335.184 94.6112C336.28 92.8551 337.55 92.359 337.55 93.6865C337.55 94.1077 336.79 95.5062 335.86 96.7952L334.169 99.1388L328.268 94.0826C325.022 91.3018 322.501 88.6797 322.666 88.2552C322.831 87.8314 325.261 89.4679 328.066 91.8925ZM168.187 95.7671L171.081 98.6136V116.955C171.081 133.866 170.968 135.384 169.638 136.416C168.426 137.355 166.238 137.534 155.964 137.534H143.732L141.233 134.87L138.734 132.206V113.683C138.734 96.5952 138.846 95.0722 140.177 94.0401C141.384 93.1039 143.549 92.9213 153.457 92.9213H165.294L168.187 95.7671ZM165.997 95.1419C166.211 95.6191 166.466 96.9122 166.564 98.0147L166.742 100.019L153.132 100.204L139.523 100.389V98.1424C139.523 96.9068 139.949 95.5305 140.47 95.0844C141.86 93.8934 165.461 93.9461 165.997 95.1419ZM254.513 97.2907C256.791 98.1992 258.7 99.0327 258.754 99.1428C258.809 99.253 259.075 103.739 259.346 109.113L259.838 118.883L282.324 130.551C294.69 136.969 305.158 142.329 305.584 142.464C307.722 143.139 302.248 159.087 299.113 161.316C297.862 162.205 294.387 159.236 266.798 133.702C259.498 126.946 252.884 121.217 252.098 120.969C249.969 120.298 248.711 117.548 249.949 116.271C251.464 114.706 250.33 112.07 247.918 111.552C245.083 110.942 244.525 111.648 247.163 112.507C248.585 112.97 249.206 113.6 249.017 114.385C248.644 115.927 244.466 115.729 243.079 114.104C242.006 112.846 241.713 108.066 242.679 107.565C243.004 107.396 245.33 107.807 247.849 108.477C250.886 109.286 252.327 109.432 252.13 108.913C251.968 108.483 249.819 107.688 247.356 107.147C243.999 106.409 242.876 105.858 242.876 104.95C242.876 103.387 244.247 103.419 248.793 105.089C252.99 106.63 253.132 106.655 253.132 105.847C253.132 105.52 250.989 104.567 248.369 103.727C245.748 102.888 243.746 101.862 243.919 101.448C244.39 100.319 247.309 100.833 252.46 102.951C255 103.995 257.077 104.59 257.077 104.272C257.077 103.954 256.545 103.519 255.894 103.305C255.243 103.091 254.71 102.194 254.71 101.311C254.71 100.189 254.176 99.614 252.935 99.3984C247.595 98.4703 246.346 98.1573 245.453 97.5219C244.913 97.138 244.666 96.5539 244.904 96.2247C245.705 95.1128 250.343 95.6272 254.513 97.2907ZM388.306 96.752C388.596 96.9994 388.75 104.376 388.651 113.144L388.469 129.085L388.242 113.779C388.069 102.156 387.765 98.2965 386.978 97.7368C386.304 97.2576 378.662 96.9331 365.099 96.8081L344.257 96.6154L366.018 96.4586C377.987 96.3721 388.017 96.5039 388.306 96.752ZM240.706 98.5777C242.979 100.141 243.632 102.385 241.815 102.385C240.173 102.385 237.986 99.9465 238.276 98.4392C238.532 97.1102 238.575 97.1129 240.706 98.5777ZM386.384 98.5832C387.015 99.2341 387.222 103.962 387.073 114.299L386.86 129.085L360.233 129.263L333.606 129.441V117.002V104.563L336.502 104.098C339.48 103.619 343.862 100.343 343.862 98.5953C343.862 97.2083 385.042 97.1968 386.384 98.5832ZM166.61 101.484C166.9 101.731 167.136 107.663 167.136 114.665V127.395H153.33H139.523V114.214V101.033H152.803C160.108 101.033 166.321 101.236 166.61 101.484ZM331.699 116.242C331.698 123.306 331.581 126.103 331.439 122.459C331.297 118.815 331.298 113.036 331.441 109.616C331.584 106.196 331.7 109.178 331.699 116.242ZM166.827 129.708C167.064 130.237 166.863 131.301 166.38 132.074C165.55 133.402 164.847 133.479 153.46 133.479C140.706 133.479 139.523 133.209 139.523 130.302V128.747H152.96C163.848 128.747 166.478 128.929 166.827 129.708ZM391.988 130.736C391.988 131.087 391.199 131.848 390.234 132.426C388.725 133.333 384.455 133.479 359.509 133.479H330.538L328.324 131.81L326.111 130.141L359.049 130.121C379.18 130.107 391.988 130.347 391.988 130.736ZM160.885 150.736C162.829 152.401 162.96 152.419 165.827 151.393C168.158 150.559 169.415 150.487 171.857 151.05C179.578 152.832 180.996 161.074 174.309 165.309C171.264 167.239 170.918 169.98 173.72 169.98C177.449 169.98 178.185 171.73 178.149 180.511L178.118 188.569L175.923 186.372L173.727 184.175H165.805C156.912 184.175 154.049 183.103 153.577 179.598C153.345 177.871 153.055 177.74 148.99 177.535L144.651 177.316L140.912 180.914C138.411 183.322 137.17 184.122 137.165 183.33C137.16 182.68 136.801 182.147 136.367 182.147C135.872 182.147 135.578 177.901 135.578 170.761C135.578 160.589 135.732 159.256 137.021 158.256C138.216 157.33 140.32 157.137 149.25 157.137C155.182 157.137 160.036 156.953 160.036 156.727C160.036 156.502 158.935 155.127 157.591 153.672C153.756 149.524 156.556 147.028 160.885 150.736ZM217.659 151.898C217.675 153.107 218.012 160.017 218.408 167.254C218.804 174.492 219.012 180.512 218.87 180.635C218.727 180.756 216.944 177.287 214.906 172.924C211.814 166.305 211.341 164.728 212.048 163.398C213.165 161.298 213.124 159.343 211.957 159.009C211.343 158.834 212.04 157.174 213.968 154.222C215.59 151.736 217.078 149.702 217.274 149.702C217.469 149.702 217.643 150.69 217.659 151.898ZM162.68 154.301L167.982 158.827L169.478 157.147C170.3 156.223 171.19 155.653 171.455 155.88C171.981 156.331 169.502 161.193 168.747 161.193C167.693 161.193 155.985 150.513 156.652 150.161C157.05 149.949 159.763 151.813 162.68 154.301ZM365.832 153.367C377.453 155.853 385.469 166.136 384.751 177.633C383.718 194.189 362.32 202.814 346.095 193.215C340.299 189.786 335.184 180.633 335.184 173.693C335.184 160.072 350.305 150.044 365.832 153.367ZM366.976 154.732C377.091 157.823 382.529 164.551 382.513 173.952C382.483 191.315 357.182 199.93 342.998 187.408C338.449 183.392 336.484 179.264 336.47 173.698C336.449 165.582 340.877 159.535 349.56 155.817C354.988 153.493 361.579 153.083 366.976 154.732ZM160.229 160.179L160.606 161.869H151.248C145.535 161.869 141.89 162.132 141.89 162.545C141.89 162.958 145.56 163.221 151.322 163.221C160.082 163.221 160.962 163.341 163.661 164.911C165.259 165.84 167.253 166.6 168.09 166.6C169.218 166.6 169.547 166.995 169.361 168.121C169.113 169.617 168.873 169.648 155.302 170.005C147.708 170.204 144.246 170.432 147.61 170.512L153.724 170.656V172.684V174.712H147.872H142.021L139.21 177.585L136.398 180.458L136.383 170.781C136.374 165.375 136.728 160.527 137.184 159.796C137.931 158.601 138.932 158.489 148.926 158.489H159.852L160.229 160.179ZM372.996 161.622C374.974 163.776 375.17 168.242 373.444 171.782C371.89 174.968 361.911 183.083 356.934 185.208C351.945 187.338 349.064 187.341 346.588 185.22C343.738 182.779 344.125 180.843 348.136 177.47L351.621 174.54L354.053 176.024L356.485 177.508L358.737 176.134C359.976 175.378 361.949 173.681 363.124 172.362L365.258 169.965L363.594 167.963C361.612 165.577 362.138 164.327 366.257 161.636C369.7 159.385 370.941 159.383 372.996 161.622ZM74.3576 166.532C75.5624 167.61 78.1139 169.003 80.0279 169.629C81.9411 170.255 83.5071 170.875 83.5071 171.006C83.5071 171.137 83.1205 172.101 82.6472 173.147C82.1746 174.193 81.8329 178.303 81.889 182.279C81.9813 188.832 81.8456 189.573 80.4341 190.221C79.5773 190.614 77.9663 190.935 76.8531 190.935C74.9501 190.935 74.8286 191.137 74.8286 194.315V197.694H66.2487H57.6689L57.1758 195.582C56.248 191.607 56.2985 191.56 60.9565 192.029C64.8199 192.419 65.4219 192.296 67.216 190.759C68.308 189.824 69.4417 187.959 69.7359 186.617C70.1414 184.765 70.6574 184.175 71.8708 184.175C73.3501 184.175 73.4258 183.909 72.8736 180.627C72.1935 176.582 72.1967 175.354 72.898 171.928C73.2349 170.284 72.9864 168.8 72.1414 167.399C70.0089 163.866 70.9604 163.494 74.3576 166.532ZM210.057 165.817C210.349 166.223 212.492 170.482 214.818 175.283C218.414 182.706 218.821 183.962 217.545 183.676C215.611 183.243 213.692 184.616 213.659 186.455C213.646 187.246 213.18 188.405 212.624 189.031C211.734 190.034 210.562 188.966 202.73 180.015C197.843 174.43 194.029 169.449 194.255 168.946C194.481 168.443 195.583 167.516 196.705 166.886C199.151 165.513 209.254 164.704 210.057 165.817ZM158.655 166.427C155.509 166.554 150.361 166.554 147.215 166.427C144.07 166.298 146.643 166.193 152.935 166.193C159.227 166.193 161.801 166.298 158.655 166.427ZM174.829 171.104C175.521 171.344 175.815 173.374 175.815 177.928V184.411L173.989 182.941C172.351 181.624 171.3 181.471 163.817 181.471C156.934 181.471 155.387 181.284 154.992 180.402C154.152 178.528 154.478 172.309 155.46 171.467C156.399 170.662 172.668 170.357 174.829 171.104ZM70.5509 175.219C70.8184 176.241 71.3557 178.142 71.7446 179.444C72.6259 182.387 72.6464 183.499 71.8188 183.499C70.8412 183.499 68.5951 179.087 68.0294 176.054C67.6176 173.851 67.7573 173.36 68.7955 173.36C69.5363 173.36 70.2669 174.134 70.5509 175.219ZM173.448 174.712C173.448 175.12 170.16 175.388 165.164 175.388C160.167 175.388 156.88 175.12 156.88 174.712C156.88 174.304 160.167 174.036 165.164 174.036C170.16 174.036 173.448 174.304 173.448 174.712ZM173.448 178.092C173.448 178.499 170.16 178.768 165.164 178.768C160.167 178.768 156.88 178.499 156.88 178.092C156.88 177.684 160.167 177.416 165.164 177.416C170.16 177.416 173.448 177.684 173.448 178.092ZM221.883 188.27C226.242 192.302 226.889 193.251 225.711 193.875C224.84 194.336 214.474 187.686 214.474 186.664C214.474 185.739 216.007 184.175 216.913 184.175C217.214 184.175 219.45 186.018 221.883 188.27ZM219.799 192.348C224.582 195.6 226.029 197.694 223.491 197.694C222.036 197.694 216.32 194.427 214.132 192.344C212.81 191.086 212.757 190.767 213.737 189.944C214.712 189.126 215.55 189.459 219.799 192.348ZM218.418 196.818L222.758 199.183L219.602 198.727C215.827 198.181 212.896 196.689 212.896 195.313C212.896 193.95 213.422 194.094 218.418 196.818ZM77.9845 198.8C80.6322 199.747 86.6203 206.067 85.6547 206.895C85.4716 207.052 82.162 206.505 78.3 205.679C70.4744 204.004 57.8172 203.677 52.3876 205.007C50.6764 205.426 49.1198 205.635 48.9288 205.471C48.3442 204.971 50.4263 201.241 51.9482 200.06C53.1024 199.166 55.6649 198.894 65.0914 198.662C71.5316 198.505 77.3336 198.566 77.9845 198.8ZM218.418 200.579C220.92 201.946 221.017 202.108 219.446 202.3C217.225 202.57 214.474 201.317 214.474 200.037C214.474 198.704 215.162 198.799 218.418 200.579ZM122.797 205.941C123.318 206.387 123.744 207.3 123.744 207.969C123.744 208.777 124.34 209.189 125.519 209.196C126.495 209.202 127.827 209.501 128.478 209.862C129.39 210.367 129.134 210.519 127.356 210.527C126.089 210.533 124.462 210.995 123.741 211.554C121.872 213.003 115.288 212.202 114.638 210.448C114.38 209.753 113.64 209.186 112.994 209.186C112.346 209.186 112.037 208.879 112.308 208.504C112.579 208.13 113.724 207.967 114.854 208.142C116.336 208.372 117.411 207.997 118.711 206.795C120.739 204.921 121.436 204.775 122.797 205.941ZM72.4618 205.598C73.5466 205.754 77.0969 206.509 80.3513 207.275C83.6057 208.041 87.0771 208.758 88.0649 208.869C89.8053 209.065 105.078 217.382 105.973 218.621C106.216 218.959 105.716 220.396 104.861 221.815C102.685 225.425 101.666 231.758 101.659 241.718C101.654 248.559 101.893 250.424 102.86 251.112C103.725 251.726 104.04 253.14 103.972 256.095C103.904 259.018 104.6 262.189 106.36 266.98C110.424 278.039 111.924 284.1 112.717 292.666C113.13 297.127 113.696 302.95 113.973 305.605L114.478 310.434L111.813 310.895C110.347 311.148 108.519 311.508 107.751 311.694C106.672 311.954 105.892 311.168 104.336 308.256C103.226 306.18 101.992 304.654 101.592 304.866C101.192 305.078 100.864 307.176 100.864 309.53V313.808L98.3 314.201C85.9135 316.097 68.5241 316.896 59.1277 316.001C50.8539 315.214 39.6215 312.462 35.7044 310.263C33.616 309.091 33.6042 309.036 34.1233 303.24C35.0606 292.778 37.0338 284.775 41.8125 272.049C48.0073 255.553 48.0026 255.591 44.4357 247.727C38.876 235.471 36.1699 225.957 36.1699 218.668C36.1699 214.998 36.3569 214.606 39.1284 212.463C43.5363 209.057 47.1711 207.327 52.3576 206.169C56.6598 205.209 67.6018 204.898 72.4618 205.598ZM100.899 208.313C102.41 209.777 102.463 209.921 101.139 208.967C100.205 208.294 98.8965 207.84 98.2322 207.958C97.5671 208.076 96.9809 207.867 96.9296 207.496C96.7292 206.049 99.0558 206.528 100.899 208.313ZM93.7635 209.225C93.7635 209.619 93.4085 209.753 92.9746 209.524C92.5406 209.294 92.1856 208.972 92.1856 208.808C92.1856 208.643 92.5406 208.51 92.9746 208.51C93.4085 208.51 93.7635 208.832 93.7635 209.225ZM101.679 211.587C102.631 212.908 103.235 214.139 103.02 214.323C102.558 214.719 95.3415 211.082 95.3415 210.452C95.3415 210.064 98.0831 209.218 99.4188 209.195C99.7091 209.19 100.726 210.266 101.679 211.587ZM111.936 211.837C113.47 212.094 115.166 212.538 115.704 212.824C116.242 213.109 119.391 213.331 122.7 213.316C126.01 213.301 129.02 213.449 129.391 213.646C130.084 214.012 119.814 231.456 118.893 231.479C118.61 231.486 115.972 228.678 113.029 225.24C110.085 221.801 106.851 218.206 105.839 217.252C104.221 215.723 104.106 215.26 104.877 213.365C105.808 211.076 106.505 210.926 111.936 211.837ZM121.969 237.183C134.569 251.577 136.367 253.943 136.367 256.126C136.367 259.517 135.29 260.987 131.638 262.584C125.385 265.317 122.639 264.404 110.726 255.63C101.553 248.875 102.16 250.107 102.745 239.42C103.319 228.959 104.316 224.023 106.253 222.065C107.525 220.78 108.071 221.306 121.969 237.183ZM38.2551 234.992C39.1853 238.093 41.2571 243.628 42.8586 247.292C45.8748 254.191 45.8212 256.006 42.6432 254.549C38.8713 252.819 35.8906 243.273 36.3245 234.31L36.5644 229.355L38.2551 234.992ZM396.722 232C402.031 234.272 403.503 239.248 404.369 257.854C404.901 269.267 404.955 269.554 405.894 266.024C408.218 257.279 417.06 245.898 423.396 243.497C426.724 242.236 427.331 242.197 430.228 243.055C433.982 244.167 435.12 245.858 438.125 254.792C440.937 263.156 441.522 269.791 439.788 273.68C437.455 278.915 430.624 283.106 422.785 284.113L419.262 284.565L417.045 290.643C414.263 298.27 411.18 311.371 410.605 318.014L410.167 323.084L411.656 317.676C413.617 310.557 417.805 299.436 419.803 296.046C422.096 292.154 425.858 287.596 426.778 287.596C427.212 287.596 426.45 288.988 425.083 290.689C419.897 297.148 415.909 306.303 412.889 318.684C409.673 331.865 409.374 334.667 409.883 346.737C410.158 353.246 410.593 358.572 410.85 358.572C411.107 358.572 411.195 353.96 411.045 348.324C410.754 337.365 411.337 330.858 412.611 330.858C413.075 330.858 413.154 331.481 412.806 332.378C411.901 334.706 412.124 357.167 413.059 357.968C413.603 358.434 413.983 355.41 414.239 348.584C414.667 337.169 415.95 333.426 419.587 332.987C420.665 332.857 422.795 331.912 424.321 330.888C428.476 328.1 430.212 327.478 433.844 327.478C436.613 327.478 437.626 327.891 440.142 330.046C445.454 334.598 445.011 340.635 439.139 343.703C432.774 347.028 425.442 343.918 421.999 336.434C420.753 333.725 418.641 333.575 417.254 336.096C416.122 338.154 415.131 348.643 415.499 354.685L415.736 358.572H424.779H433.822L433.4 361.107C432.776 364.874 429.069 398.849 429.069 400.814V402.509H460.233C480.483 402.509 491.396 402.745 491.396 403.185C491.396 403.624 480.458 403.861 460.16 403.861C430.118 403.861 428.847 403.912 426.918 405.213C425.04 406.478 423.717 406.564 406.189 406.564C388.662 406.564 387.339 406.478 385.461 405.213C383.476 403.874 382.26 403.861 266.617 403.861C189.251 403.861 149.779 403.632 149.779 403.185C149.779 402.737 189.362 402.509 266.948 402.509H384.118L383.701 399.974C383.164 396.706 380.39 372.175 379.688 364.486L379.148 358.572H389.513H399.878L399.836 354.009C399.771 346.96 398.599 331.565 398.094 331.132C397.845 330.919 396.862 331.414 395.907 332.232C393.094 334.642 387.663 333.841 382.166 330.207C374.873 325.388 372.561 320.685 376.801 319.3C380.866 317.972 392.079 320.304 395.429 323.175L397.511 324.958V323.221C397.511 316.884 392.73 305.329 388.76 302.07C387.498 301.034 386.466 299.88 386.466 299.505C386.466 298.339 392.048 303.351 393.575 305.888C395.774 309.541 397.513 316.009 399.109 326.464C402.318 347.499 403.002 352.279 403.21 355.139C403.337 356.878 403.864 358.252 404.471 358.422C406.487 358.991 403.727 327.752 400.751 316.316C399.354 310.949 393.154 292.425 392.593 291.945C392.477 291.845 390.746 292.083 388.749 292.475C383.28 293.547 378.304 292.667 375.303 290.096C369.555 285.172 365.37 272.216 366.177 261.845C366.655 255.691 368.286 252.672 371.815 251.408C375.789 249.986 379.576 251.203 385.019 255.651C399.424 267.423 404.263 282.763 395.702 289.524C393.73 291.08 393.713 291.176 394.834 294.255C398.144 303.344 402.367 316.965 403.352 321.732L404.47 327.14L404.541 317.13C404.586 310.643 404.889 307.267 405.4 307.537C405.892 307.797 406.227 315.017 406.288 326.673C406.397 347.26 407.165 347.423 408.483 327.14C408.918 320.448 410.002 311.746 410.894 307.803C412.306 301.553 416.193 288.649 417.607 285.515C417.967 284.719 417.323 284.25 415.075 283.674C411.627 282.788 407.556 279.415 406.349 276.443C405.722 274.902 405.483 278.065 405.352 289.624C405.234 299.949 404.985 303.639 404.578 301.115C404.249 299.071 403.934 291.77 403.88 284.893C403.766 270.421 402.544 245.378 401.784 241.903L401.262 239.523L399.533 240.916C396.875 243.055 394.144 242.664 389.932 239.541C385.392 236.175 383.563 236.278 376.743 240.284C371.61 243.3 369.898 243.634 369.898 241.617C369.898 239.551 376.093 234.196 380.548 232.41C385.454 230.444 392.66 230.262 396.722 232ZM125.949 231.909C127.387 234.212 133.291 247.196 133.01 247.437C132.863 247.563 130.356 244.936 127.439 241.6L122.136 235.534L123.623 233.051C125.005 230.743 125.17 230.662 125.949 231.909ZM314.034 231.997C308.694 232.115 300.173 232.114 295.099 231.996C290.025 231.879 294.395 231.783 304.809 231.783C315.223 231.784 319.374 231.88 314.034 231.997ZM195.341 231.997C190.243 232.115 181.899 232.115 176.801 231.997C171.703 231.879 175.874 231.783 186.071 231.783C196.268 231.783 200.44 231.879 195.341 231.997ZM395.144 232.645C397.531 233.393 399.878 235.828 399.878 237.558C399.878 241.631 395.616 242.089 390.995 238.512C388.11 236.279 387.518 236.095 384.109 236.376C381.55 236.586 379.049 237.447 376.142 239.116C373.812 240.454 371.748 241.414 371.555 241.249C370.654 240.477 376.343 235.689 380.137 234.027C383.463 232.571 385.419 232.18 389.171 232.221C391.805 232.251 394.493 232.442 395.144 232.645ZM314.034 238.757C308.694 238.874 300.173 238.874 295.099 238.756C290.025 238.638 294.395 238.543 304.809 238.543C315.223 238.544 319.374 238.64 314.034 238.757ZM194.902 238.757C189.562 238.874 181.041 238.874 175.967 238.756C170.893 238.638 175.263 238.543 185.677 238.543C196.091 238.544 200.242 238.64 194.902 238.757ZM430.647 244.533C434.763 246.313 439.598 260.024 439.179 268.722C438.868 275.156 436.847 277.738 429.743 280.779C417.575 285.989 406.978 281.394 406.978 270.908C406.978 261.697 416.809 246.883 424.584 244.376C427.411 243.464 428.226 243.485 430.647 244.533ZM61.7967 249.391C65.6949 252.51 68.689 255.229 68.4499 255.433C67.9615 255.852 54.7111 245.815 54.0208 244.504C53.0945 242.743 54.9288 243.897 61.7967 249.391ZM322.56 245.011C322.56 245.442 315.97 245.687 304.368 245.687C292.44 245.687 286.343 245.455 286.663 245.011C286.964 244.593 293.903 244.335 304.855 244.335C316.133 244.335 322.56 244.581 322.56 245.011ZM204.217 245.011C204.217 245.442 197.643 245.687 186.071 245.687C174.5 245.687 167.925 245.442 167.925 245.011C167.925 244.58 174.5 244.335 186.071 244.335C197.643 244.335 204.217 244.58 204.217 245.011ZM154.513 269.684V292.383L148.004 292.186L141.495 291.99V269.684V247.377L148.004 247.181L154.513 246.984V269.684ZM153.366 248.567C153.576 249.035 153.653 258.845 153.539 270.366L153.33 291.314H148.201H143.073L142.865 269.515L142.657 247.715H147.821C151.245 247.715 153.113 248.002 153.366 248.567ZM251.947 251.769C253.902 253.619 253.678 257.193 251.514 258.694C246.417 262.231 239.634 256.653 243.677 252.249C245.763 249.977 249.807 249.743 251.947 251.769ZM234.986 251.771C237.115 253.594 237.003 256.59 234.739 258.413C232.369 260.319 229.388 260.282 227.234 258.318C223.818 255.202 226.124 250.419 231.042 250.419C232.357 250.419 234.11 251.02 234.986 251.771ZM250.765 252.447C252.731 254.131 252.78 255.954 250.9 257.412C248.136 259.555 243.665 258.128 243.665 255.103C243.665 253.555 246.328 251.095 248.004 251.095C248.655 251.095 249.898 251.703 250.765 252.447ZM234.14 252.876C236.1 255.01 236.11 255.117 234.547 257.028C233.194 258.683 229.613 259.064 228.044 257.719C226.474 256.375 226.918 253.307 228.851 252.147C231.284 250.687 232.253 250.82 234.14 252.876ZM379.054 253.061C381.079 253.849 384.037 256.096 386.944 259.055C398.296 270.609 401.576 279.92 396.709 286.775C394.709 289.595 391.084 291.088 385.318 291.469C381.233 291.739 380.153 291.553 377.799 290.177C374.256 288.107 371.967 284.549 369.838 277.805C366.41 266.946 367.046 255.962 371.267 253.118C373.725 251.462 374.922 251.453 379.054 253.061ZM332.828 252.796C333.603 253.597 333.631 254.228 332.945 255.518L332.052 257.196L304.709 257.018C279.66 256.855 277.294 256.741 276.496 255.658C275.861 254.795 275.861 254.154 276.496 253.292C277.294 252.208 279.655 252.094 304.593 251.931C328.332 251.776 331.947 251.887 332.828 252.796ZM295.999 252.898C296.288 253.145 296.525 253.905 296.525 254.587C296.525 255.72 295.713 255.827 287.104 255.827C277.58 255.827 275.747 255.363 277.618 253.431C278.345 252.681 280.586 252.447 287.023 252.447C291.67 252.447 295.71 252.65 295.999 252.898ZM61.317 256.911C65.5561 260.874 66.9194 262.586 65.8369 262.586C65.1482 262.586 55.7115 253.054 56.0839 252.735C56.304 252.546 58.659 254.425 61.317 256.911ZM331.633 253.799C332.895 255.547 330.5 255.827 314.23 255.827C297.84 255.827 297.314 255.785 297.314 254.475C297.314 253.165 297.84 253.123 314.23 253.123C324.656 253.123 331.333 253.382 331.633 253.799ZM171.081 273.036V292.328H164.362H157.644L157.853 273.232L158.063 254.137L164.572 253.941L171.081 253.744V273.036ZM169.503 273.063V290.976H164.375H159.247V273.063V255.151H164.375H169.503V273.063ZM77.9845 262.248C79.4566 263.549 80.3947 264.614 80.0697 264.614C79.2129 264.614 74.0397 260.989 74.0397 260.389C74.0397 259.325 75.4054 259.968 77.9845 262.248ZM332.649 264.064C333.944 265.174 333.852 266.334 332.366 267.608C331.288 268.53 327.69 268.67 304.903 268.67C276.632 268.67 275.591 268.546 276.134 265.252L276.406 263.6L304.049 263.422C324.89 263.288 331.928 263.447 332.649 264.064ZM249.188 263.791C252.916 264.809 254.533 269.4 251.944 271.619C247.52 275.41 240.53 271.494 242.915 266.561C243.838 264.652 247.085 263.218 249.188 263.791ZM233.16 263.949C236.901 265.227 237.603 269.193 234.552 271.807C232.218 273.807 229.196 273.595 226.9 271.27C223.296 267.621 227.956 262.172 233.16 263.949ZM282.586 264.389C282.876 264.636 283.113 265.397 283.113 266.079C283.113 267.04 282.504 267.318 280.398 267.318C278.904 267.318 277.431 266.968 277.121 266.539C276.059 265.065 281.073 263.092 282.586 264.389ZM331.633 265.29C332.937 267.097 330.356 267.318 307.918 267.318C285.217 267.318 284.69 267.287 284.69 265.966C284.69 264.644 285.217 264.614 307.918 264.614C322.552 264.614 331.326 264.864 331.633 265.29ZM233.362 265.744C234.622 266.5 235.011 267.332 234.833 268.891C234.345 273.178 227.097 272.633 227.097 268.309C227.097 265.665 230.743 264.172 233.362 265.744ZM251.527 266.597C252.687 268.455 252.556 269.164 250.765 270.698C248.62 272.535 246.333 272.396 244.754 270.332C242.753 267.715 244.294 265.29 247.959 265.29C249.872 265.29 250.959 265.689 251.527 266.597ZM187.649 278.782V292.328H180.926H174.204L174.418 278.978L174.631 265.628L181.14 265.432L187.649 265.235V278.782ZM185.892 278.978L185.677 291.314L180.746 291.516L175.815 291.716V279.179V266.642H180.961H186.107L185.892 278.978ZM462.144 271.772C465.114 273.912 465.384 277.049 462.922 280.803C461.12 283.549 455.742 286.922 453.172 286.918C450.699 286.914 446.679 284.531 444.675 281.882C443.686 280.573 442.598 279.498 442.258 279.493C441.026 279.477 433.969 282.833 431.515 284.601C430.133 285.598 428.828 286.263 428.615 286.081C427.855 285.429 434.2 281.283 438.5 279.62C440.907 278.69 444.376 276.645 446.209 275.074C452.33 269.832 457.864 268.685 462.144 271.772ZM204.217 281.175V292.328H197.511H190.805V281.175V270.022H197.511H204.217V281.175ZM459.049 271.194C465.011 272.988 463.96 280.731 457.281 284.22C453.592 286.148 450.921 285.936 448.065 283.489C444.469 280.408 444.173 278.474 446.919 276.014C450.884 272.462 456.219 270.343 459.049 271.194ZM202.639 281.175V290.976H197.511H192.383V281.175V271.373H197.511H202.639V281.175ZM332.649 275.556C333.944 276.666 333.852 277.825 332.366 279.099C331.288 280.022 327.65 280.161 304.455 280.161C275.714 280.161 275.571 280.143 276.148 276.649L276.406 275.091L304.049 274.913C324.89 274.78 331.928 274.938 332.649 275.556ZM319.105 276.411C320.102 278.637 318.599 278.809 298.141 278.809C281.552 278.809 277.681 278.636 277.341 277.878C276.357 275.679 278.53 275.429 298.679 275.429C315.423 275.429 318.736 275.589 319.105 276.411ZM331.88 277.288C331.663 278.262 330.608 278.506 325.905 278.67C320.603 278.854 320.193 278.769 320.193 277.487C320.193 276.217 320.677 276.105 326.168 276.105C331.434 276.105 332.112 276.246 331.88 277.288ZM251.554 278.133C255.19 281.248 252.963 286.244 247.939 286.244C246.072 286.244 244.892 285.738 243.677 284.415C239.59 279.963 246.892 274.139 251.554 278.133ZM234.485 278.182C238.496 280.885 236.207 286.244 231.042 286.244C226.003 286.244 223.841 281.537 227.456 278.441C229.821 276.413 231.756 276.342 234.485 278.182ZM251.132 279.458C252.956 281.185 252.175 284.003 249.592 285.012C245.393 286.651 241.693 281.899 245.108 279.252C247.035 277.757 249.421 277.839 251.132 279.458ZM331.399 286.028C334.294 286.681 333.987 290.549 330.987 291.238C327.859 291.957 279.161 291.697 277.538 290.953C276.672 290.555 276.012 289.542 276.012 288.61C276.012 287.678 276.672 286.666 277.538 286.268C279.029 285.585 328.455 285.364 331.399 286.028ZM331.728 287.902C331.969 288.442 331.938 289.202 331.657 289.592C331.318 290.062 322.662 290.3 305.946 290.3H280.746V288.61V286.92H306.017C327.382 286.92 331.356 287.072 331.728 287.902ZM279.168 288.61C279.168 289.54 278.842 290.3 278.444 290.3C277.52 290.3 276.926 288.862 277.396 287.765C278.024 286.302 279.168 286.847 279.168 288.61ZM369.606 293.977C370.963 294.484 372.316 295.233 372.611 295.641C372.905 296.05 374.279 296.386 375.664 296.388C378.916 296.393 384.099 297.627 384.099 298.396C384.099 298.735 382.992 298.721 381.54 298.364C376.242 297.062 373.412 297.566 368.085 300.757C356.772 307.533 348.766 309.434 345.03 306.234C343.337 304.783 343.215 304.349 343.975 302.482C345.087 299.747 351.356 296.095 357.949 294.339C363.787 292.784 366.204 292.709 369.606 293.977ZM369.046 295.17C370.097 295.652 371.078 296.362 371.227 296.749C371.561 297.621 360.453 303.886 355.878 305.405C346.799 308.419 341.265 304.236 348.495 299.825C355.308 295.668 365.231 293.42 369.046 295.17ZM452.212 308.565C457.827 310.264 462.241 312.587 464.473 315.019C466.59 317.325 466.594 318.813 464.488 320.444C460.697 323.381 451.907 321.156 440.63 314.404C436.726 312.067 435.471 311.663 432.478 311.775C428.088 311.938 421.703 314.813 419.008 317.84C417.918 319.065 416.238 321.93 415.276 324.208C414.312 326.487 413.319 328.065 413.068 327.716C412.382 326.766 416.052 319.498 418.617 316.725C421.452 313.661 428.363 310.579 432.398 310.579C434.274 310.579 436.323 310.023 437.729 309.132C440.985 307.069 446.551 306.851 452.212 308.565ZM451.234 309.541C458.414 311.806 464.572 315.768 464.572 318.123C464.572 319.587 462.273 320.718 459.299 320.718C456.488 320.717 448.704 317.579 442.367 313.892L437.479 311.048L439.278 309.799C441.415 308.318 446.974 308.197 451.234 309.541ZM386.208 320.748C394.753 322.196 398.855 326.596 395.494 330.707C394.008 332.525 389.921 332.727 386.38 331.157C383.113 329.71 377.912 325.59 376.593 323.404C374.664 320.208 377.839 319.33 386.208 320.748ZM438.258 329.82C440.323 331.059 442.481 334.873 442.481 337.28C442.481 338.453 441.524 339.924 439.799 341.402C437.628 343.263 436.505 343.701 433.909 343.701C429.995 343.701 426.119 341.08 423.957 336.973C422.554 334.306 422.555 334.197 424.017 332.812C427.719 329.306 434.89 327.799 438.258 329.82ZM101.385 351.882C101.098 356.119 100.155 364.605 99.2902 370.739C98.4065 377.006 97.7162 386.114 97.713 391.529C97.7083 400.968 97.7485 401.196 99.6807 402.635C102.569 404.787 102.229 406.364 98.6945 407.205C94.7403 408.146 88.7924 408.102 86.2614 407.115C84.3592 406.372 84.2542 406.11 84.8436 403.566C85.6799 399.952 85.3572 392.323 83.4803 371.415C82.6298 361.935 81.9324 352.489 81.9316 350.424L81.9292 346.671L89.6215 345.825C93.8519 345.359 98.3474 344.798 99.6105 344.578L101.907 344.177L101.385 351.882ZM59.0496 345.672C66.4523 346.665 67.3146 346.924 67.1552 348.115C67.0574 348.847 65.9285 356.29 64.6456 364.655C63.3628 373.02 61.5127 385.492 60.5344 392.369C59.2768 401.208 58.4073 405.123 57.5679 405.72C56.9154 406.185 54.7624 406.564 52.7845 406.563L49.1876 406.562L49.0535 375.469C48.9518 352.062 49.1466 344.4 49.8425 344.469C50.3498 344.52 54.4933 345.061 59.0496 345.672ZM80.7419 348.094C80.9225 348.838 81.2207 353.249 81.4038 357.896C81.5876 362.543 82.3773 374.184 83.1584 383.765C84.1115 395.457 84.3174 401.409 83.7841 401.866C83.3028 402.278 78.4839 402.472 71.56 402.359L60.1304 402.171L63.4653 380.878C65.2996 369.167 67.2752 356.696 67.8558 353.164L68.9115 346.742H74.6622C79.7769 346.742 80.4492 346.892 80.7419 348.094ZM408.286 352.826C408.283 355.8 408.144 356.933 407.978 355.343C407.811 353.753 407.813 351.32 407.983 349.936C408.152 348.551 408.289 349.852 408.286 352.826ZM401.67 353.094C402.238 357.769 402.052 359.308 401.025 358.428C400.787 358.225 400.699 355.816 400.828 353.076L401.061 348.094L401.67 353.094ZM430.502 375.302L430.253 377.16L406.638 377.34C381.939 377.527 381.774 377.509 381.744 374.626C381.733 373.524 383.42 373.443 406.242 373.443H430.752L430.502 375.302ZM429.069 387.638C429.069 388.073 420.917 388.314 406.189 388.314C391.462 388.314 383.31 388.073 383.31 387.638C383.31 387.202 391.462 386.962 406.189 386.962C420.917 386.962 429.069 387.202 429.069 387.638Z" fill="#545454"/>
</svg>
